<svg width="256" height="256" viewBox="0 0 256 256" fill="none" xmlns="http://www.w3.org/2000/svg">
<path d="M232 32H24C10.745 32 0 42.745 0 56V200C0 213.255 10.745 224 24 224H232C245.255 224 256 213.255 256 200V56C256 42.745 245.255 32 232 32ZM232 56V76.4025C220.789 85.532 202.916 99.728 164.706 129.648C156.286 136.271 139.606 152.184 128 151.998C116.396 152.186 99.7105 136.269 91.2935 129.648C53.09 99.7325 35.2125 85.5335 24 76.4025V56H232ZM24 200V107.199C35.457 116.324 51.7045 129.13 76.469 148.522C87.3975 157.125 106.536 176.115 128 175.999C149.358 176.115 168.255 157.4 179.527 148.526C204.291 129.135 220.542 116.326 232 107.2V200H24Z" fill="white"/>
</svg>
