<svg width="134" height="119" viewBox="0 0 134 119" fill="none" xmlns="http://www.w3.org/2000/svg">
<path d="M133.191 56.1066C120.575 31.5141 95.5984 14.875 67.0001 14.875C38.4018 14.875 13.4187 31.5257 0.8097 56.109C0.27752 57.1607 0.000244141 58.3227 0.000244141 59.5012C0.000244141 60.6796 0.27752 61.8416 0.8097 62.8934C13.4257 87.4859 38.4018 104.125 67.0001 104.125C95.5984 104.125 120.582 87.4743 133.191 62.891C133.723 61.8393 134 60.6773 134 59.4988C134 58.3204 133.723 57.1584 133.191 56.1066ZM67.0001 92.9688C60.3744 92.9688 53.8976 91.0058 48.3885 87.3282C42.8795 83.6507 38.5857 78.4236 36.0502 72.3079C33.5146 66.1923 32.8512 59.4629 34.1438 52.9706C35.4364 46.4783 38.627 40.5147 43.312 35.834C47.9971 31.1533 53.9662 27.9657 60.4646 26.6743C66.9629 25.3829 73.6987 26.0457 79.82 28.5789C85.9413 31.1121 91.1733 35.4018 94.8543 40.9058C98.5354 46.4097 100.5 52.8805 100.5 59.5C100.502 63.8958 99.6372 68.2489 97.9544 72.3105C96.2717 76.372 93.8042 80.0625 90.693 83.1708C87.5818 86.279 83.8879 88.7442 79.8225 90.4255C75.7572 92.1067 71.4 92.9709 67.0001 92.9688ZM67.0001 37.1875C65.0067 37.2153 63.0262 37.5116 61.112 38.0684C62.6898 40.2105 63.447 42.8467 63.2462 45.4988C63.0453 48.1508 61.8999 50.6432 60.0175 52.5239C58.135 54.4045 55.6404 55.5489 52.9858 55.7495C50.3313 55.9502 47.6927 55.1937 45.5485 53.6174C44.3275 58.1115 44.5479 62.8749 46.1787 67.2373C47.8094 71.5997 50.7684 75.3413 54.6391 77.9356C58.5098 80.5299 63.0974 81.8461 67.7561 81.6991C72.4148 81.552 76.9101 79.9491 80.6092 77.116C84.3083 74.2828 87.025 70.362 88.3769 65.9055C89.7288 61.449 89.6478 56.6811 88.1454 52.273C86.6429 47.8649 83.7946 44.0385 80.0014 41.3323C76.2083 38.6262 71.6611 37.1765 67.0001 37.1875Z" fill="white"/>
</svg>
