<svg width="88" height="39" viewBox="0 0 88 39" fill="none" xmlns="http://www.w3.org/2000/svg">
<path d="M23.9301 1.79315C26.2251 1.48713 35.2524 0.416126 33.8754 1.79315C32.4977 3.17046 13.2199 17.5524 13.3729 19.5414C13.5264 21.5308 31.4273 36.0658 34.7934 37.4428C38.1594 38.8198 28.8262 39.4319 25.3071 37.4428C21.788 35.4538 2.0512 20.6128 3.58075 19.3884C5.11077 18.1644 21.635 2.09928 23.9301 1.79315ZM54.6837 1.79315C54.5307 0.110111 61.7218 0.569128 64.6289 1.79315C67.5359 3.01721 82.5302 16.9404 83.7542 19.5414C84.9779 22.1427 66.1589 36.8308 63.7109 37.4428C61.2628 38.0548 54.8367 39.1255 54.0717 37.4428C53.3067 35.7598 73.6554 21.5308 73.962 19.5414C74.268 17.5524 54.8373 3.47657 54.6837 1.79315ZM0.979712 24.4375C1.89775 24.1315 16.433 36.5248 16.739 37.4428C17.044 38.3605 1.74523 38.5135 0.979712 37.4428C0.214696 36.3718 0.0617379 24.7439 0.979712 24.4375ZM86.5082 23.8255C88.4973 21.3774 88.4973 36.9838 86.5082 37.4428C84.5189 37.9018 69.9843 38.8195 71.208 37.4428C72.432 36.0658 84.5189 26.2737 86.5082 23.8255ZM41.2195 1.79315C42.1375 0.875129 46.1156 1.48714 47.1866 1.79315C48.2579 2.09956 66.4646 17.5524 66.0059 19.3884C65.5463 21.2248 47.3396 36.6778 45.8096 37.4428C44.2795 38.2078 44.2795 37.9018 42.7495 37.4428C41.2195 36.9838 21.3296 21.2249 21.023 19.3884C20.717 17.5524 40.3009 2.71145 41.2195 1.79315ZM54.6837 19.6944C55.2957 18.4704 45.3506 9.13727 43.8205 9.59628C42.2905 10.0553 31.7333 18.6234 32.0393 19.6944C32.3456 20.7658 42.4435 29.9456 43.6675 29.4866C44.8915 29.0276 54.0714 20.9186 54.6837 19.6944ZM43.6675 15.5634C44.8915 15.7164 48.2576 19.0824 48.1046 19.6944C47.9513 20.3066 44.2795 23.6725 43.6675 23.6725C43.0555 23.6725 39.2305 20.7655 38.9244 19.6944C38.6184 18.6234 42.4435 15.4104 43.6675 15.5634ZM70.902 1.79315C75.033 1.79315 85.2842 0.11012 86.5082 1.79315C87.7322 3.47644 89.262 20.3063 85.8962 16.0224C82.5302 11.7383 66.7709 1.79317 70.902 1.79315ZM16.892 1.79315C19.646 1.79314 3.42775 13.5743 2.20373 15.4104C0.979703 17.2459 -1.31529 1.79326 0.979712 1.79315H16.892Z" fill="#04642E"/>
</svg>
