<svg width="70" height="70" viewBox="0 0 70 70" fill="none" xmlns="http://www.w3.org/2000/svg">
<rect width="70" height="70" rx="20" fill="#04642E"/>
<mask id="mask0_178_1582" style="mask-type:alpha" maskUnits="userSpaceOnUse" x="20" y="20" width="30" height="30">
<rect x="20" y="20" width="30" height="30" fill="#D9D9D9"/>
</mask>
<g mask="url(#mask0_178_1582)">
<path d="M35 48.125C33.5 46.7083 31.7812 45.625 29.8438 44.875C27.9062 44.125 25.875 43.75 23.75 43.75V30C25.8542 30 27.875 30.3802 29.8125 31.1406C31.75 31.901 33.4792 33 35 34.4375C36.5208 33 38.25 31.901 40.1875 31.1406C42.125 30.3802 44.1458 30 46.25 30V43.75C44.1042 43.75 42.0677 44.125 40.1406 44.875C38.2135 45.625 36.5 46.7083 35 48.125ZM35 44.875C36.3125 43.8958 37.7083 43.1146 39.1875 42.5312C40.6667 41.9479 42.1875 41.5625 43.75 41.375V32.75C42.2292 33.0208 40.7344 33.5677 39.2656 34.3906C37.7969 35.2135 36.375 36.3125 35 37.6875C33.625 36.3125 32.2031 35.2135 30.7344 34.3906C29.2656 33.5677 27.7708 33.0208 26.25 32.75V41.375C27.8125 41.5625 29.3333 41.9479 30.8125 42.5312C32.2917 43.1146 33.6875 43.8958 35 44.875ZM35 31.25C33.625 31.25 32.4479 30.7604 31.4688 29.7812C30.4896 28.8021 30 27.625 30 26.25C30 24.875 30.4896 23.6979 31.4688 22.7188C32.4479 21.7396 33.625 21.25 35 21.25C36.375 21.25 37.5521 21.7396 38.5312 22.7188C39.5104 23.6979 40 24.875 40 26.25C40 27.625 39.5104 28.8021 38.5312 29.7812C37.5521 30.7604 36.375 31.25 35 31.25ZM35 28.75C35.6875 28.75 36.276 28.5052 36.7656 28.0156C37.2552 27.526 37.5 26.9375 37.5 26.25C37.5 25.5625 37.2552 24.974 36.7656 24.4844C36.276 23.9948 35.6875 23.75 35 23.75C34.3125 23.75 33.724 23.9948 33.2344 24.4844C32.7448 24.974 32.5 25.5625 32.5 26.25C32.5 26.9375 32.7448 27.526 33.2344 28.0156C33.724 28.5052 34.3125 28.75 35 28.75Z" fill="white"/>
</g>
</svg>
