<svg width="787" height="507" viewBox="0 0 787 507" fill="none" xmlns="http://www.w3.org/2000/svg">
<path d="M356.998 341.596C369.747 342.872 455.139 428.244 480.634 453.73C506.126 479.216 469.165 498.33 433.475 470.296C397.786 442.262 377.392 410.406 360.822 409.131C344.28 407.86 270.573 480.244 270.323 480.49C246.106 495.781 214.24 483.039 244.831 453.73C245.112 453.411 344.269 340.324 356.998 341.596ZM359.725 446.075C370.991 446.075 380.119 455.203 380.119 466.463C380.119 477.723 370.991 486.851 359.725 486.851C348.463 486.851 339.332 477.723 339.332 466.463C339.332 455.203 348.463 446.075 359.725 446.075ZM6.86271 446.466C11.9056 436.397 27.7312 434.111 42.2086 441.359C56.6855 448.606 64.3343 462.642 59.2916 472.71C54.2487 482.778 38.423 485.066 23.9456 477.819C9.46852 470.572 1.8202 456.534 6.86271 446.466ZM679.103 441.359C693.58 434.111 709.405 436.397 714.448 446.466C719.49 456.534 711.843 470.572 697.365 477.819C682.888 485.066 667.065 482.778 662.02 472.71C656.978 462.642 664.625 448.606 679.103 441.359ZM355.902 232C380.125 232.004 549.644 420.59 572.587 421.864C595.533 423.137 651.617 359.425 683.48 332.666C715.345 305.908 724.268 339.038 706.423 361.974C688.578 384.91 605.73 480.478 572.587 481.754C539.45 483.028 376.301 296.992 355.902 291.89C335.508 286.793 174.909 481.751 146.865 480.48C118.823 479.206 34.6983 384.911 9.20534 359.426C-16.2871 333.94 16.853 321.198 39.7963 340.312C62.7397 359.426 117.548 425.687 146.865 425.687C176.183 425.684 331.684 232 355.902 232ZM456.418 270.367C425.827 241.059 457.693 228.317 481.911 243.608C482.14 243.834 555.864 316.238 572.409 314.966C588.979 313.692 609.373 281.835 645.062 253.802C680.752 225.768 717.716 244.882 692.224 270.367H692.221C666.726 295.854 581.334 381.226 568.585 382.502C555.857 383.774 456.676 270.661 456.418 270.367ZM232.264 243.468C256.481 228.178 288.347 240.92 257.756 270.228C257.756 270.228 158.34 383.631 145.59 382.362C132.844 381.088 47.446 295.717 21.9516 270.23V270.228C-3.54089 244.743 33.4231 225.629 69.1126 253.662C104.802 281.696 125.196 313.553 141.766 314.827C158.338 316.098 232.264 243.468 232.264 243.468ZM140.491 237.097C151.754 237.098 160.885 246.225 160.885 257.485C160.885 268.745 151.754 277.873 140.491 277.873C129.228 277.873 120.097 268.745 120.097 257.485C120.097 246.225 129.228 237.097 140.491 237.097ZM571.313 237.097C582.578 237.098 591.707 246.225 591.707 257.485C591.707 268.745 582.578 277.873 571.313 277.873C560.05 277.873 550.919 268.745 550.919 257.485C550.919 246.225 560.05 237.097 571.313 237.097Z" fill="#04642E"/>
<g clip-path="url(#clip0_313_306)">
<path fill-rule="evenodd" clip-rule="evenodd" d="M499.237 190.529C444.109 190.529 399.543 177.881 399.543 162.272C399.543 146.664 444.109 134.016 499.237 134.016C554.364 134.016 598.93 146.664 598.93 162.272C598.93 177.881 554.364 190.529 499.237 190.529Z" fill="white"/>
<path fill-rule="evenodd" clip-rule="evenodd" d="M612.941 303.554L610.516 303.877C614.719 305.814 616.767 306.514 617.791 306.675C618.815 306.837 621.617 306.514 623.988 305.976C626.79 305.33 628.03 304.845 627.491 304.576C627.06 304.361 624.635 303.93 622.102 303.608C619.569 303.285 617.036 303.069 616.444 303.069C615.851 303.123 614.288 303.338 612.941 303.554ZM629.107 313.242C627.76 313.457 625.389 314.21 623.826 314.91C622.264 315.61 620.863 316.632 620.701 317.171C620.593 317.655 620.647 318.624 620.809 319.27C621.132 320.346 621.401 320.454 623.126 320.185C624.204 319.969 626.413 319.323 628.03 318.731C629.646 318.086 632.179 316.794 633.634 315.825C635.143 314.856 636.329 313.78 636.329 313.511C636.382 313.242 635.305 312.919 633.957 312.865C632.61 312.865 630.455 312.973 629.107 313.242ZM628.676 326.859C625.659 328.096 622.587 329.603 621.94 330.249C621.294 330.841 620.593 332.079 620.378 332.94C620.162 333.802 620.108 335.039 620.27 335.685C620.378 336.385 620.647 336.923 620.916 336.923C621.132 336.923 622.749 336.062 624.527 335.093C626.305 334.071 628.838 332.295 630.185 331.164C631.532 329.98 633.365 328.043 634.281 326.805C635.574 325.082 635.79 324.544 635.089 324.598C634.604 324.598 631.748 325.621 628.676 326.859ZM564.334 454.631C564.549 455.116 565.789 456.031 567.136 456.676C568.483 457.322 571.124 458.13 573.064 458.506C575.004 458.829 576.836 459.098 577.105 459.098C577.375 459.098 577.159 458.775 576.566 458.291C575.974 457.86 573.656 456.784 571.447 455.977C569.238 455.116 566.597 454.254 565.681 454.093C564.172 453.824 563.957 453.878 564.334 454.631ZM566.651 468.517C565.843 469.055 565.412 469.863 565.465 470.724C565.519 471.585 566.004 472.231 567.028 472.608C567.836 472.93 569.992 473.092 571.986 472.931C573.926 472.769 576.243 472.392 577.105 472.069C578.614 471.477 578.668 471.424 577.86 470.509C577.375 470.024 575.435 469.271 573.549 468.894C571.663 468.517 569.615 468.033 569.022 467.925C568.429 467.764 567.351 468.033 566.651 468.517ZM559.053 484.879C557.813 486.655 556.843 488.377 556.843 488.646C556.897 489.023 558.514 489.238 561.1 489.238C563.364 489.238 566.705 488.862 568.483 488.431C570.261 487.947 572.255 487.193 572.956 486.763C573.603 486.386 574.141 485.74 574.141 485.471C574.141 485.202 573.225 484.61 572.148 484.179C571.016 483.749 568.214 483.049 565.95 482.565C563.633 482.08 561.639 481.703 561.478 481.703C561.37 481.703 560.238 483.157 559.053 484.879Z" fill="#FDDDA9"/>
<path fill-rule="evenodd" clip-rule="evenodd" d="M687.9 179.872C689.031 180.088 692.372 181.81 695.229 183.586C698.138 185.416 702.557 188.376 705.09 190.152C707.623 191.928 712.203 195.481 715.329 198.01C718.454 200.486 724.49 206.084 728.801 210.443C733.112 214.749 738.662 220.938 741.195 224.168C743.728 227.397 748.039 233.425 750.787 237.623C753.643 241.875 757.901 249.356 760.595 254.846C763.236 260.174 766.469 267.602 767.816 271.423C769.163 275.191 770.995 280.734 771.858 283.802C772.72 286.816 774.013 292.091 774.822 295.481C775.576 298.872 776.438 304.362 776.761 307.591C777.031 310.82 777.3 316.095 777.3 319.324C777.3 322.607 777.085 325.191 776.761 325.352C776.438 325.514 775.145 322.123 773.744 317.71C772.343 313.296 770.888 309.098 770.51 308.291C770.079 307.43 769.217 306.515 768.517 306.192C767.87 305.869 766.415 305.761 765.283 305.923C763.613 306.192 763.289 306.461 763.289 307.591C763.289 308.345 764.259 312.758 765.445 317.441C766.63 322.069 768.463 327.559 769.487 329.658C770.457 331.757 772.289 334.448 773.474 335.74C775.414 337.731 775.684 338.323 775.684 340.584C775.684 341.983 775.306 345.266 774.875 347.957C774.39 350.648 773.42 355.708 772.666 359.26C771.858 362.812 770.187 369.271 768.894 373.684C767.6 378.044 765.176 385.041 763.505 389.292C761.888 393.491 758.978 399.949 757.038 403.663C755.098 407.377 751.488 413.405 749.009 417.118C746.53 420.832 742.381 426.376 739.74 429.497C737.154 432.619 731.873 438.324 727.993 442.145C724.113 445.967 718.4 451.241 715.329 453.771C712.203 456.3 707.731 459.799 705.36 461.467C702.988 463.136 700.725 464.481 700.348 464.481C700.025 464.481 699.701 464.158 699.701 463.835C699.701 463.459 701.641 457.269 704.012 450.111C706.383 442.899 709.024 435.525 709.94 433.695C710.802 431.812 713.066 427.613 714.898 424.384C716.784 421.155 718.885 416.795 719.532 414.696C720.233 412.597 720.933 409.099 721.041 406.892C721.257 404.363 721.041 401.456 720.556 399.088C720.125 396.989 719.424 393.975 719.047 392.36C718.508 389.938 718.508 388.539 719.101 384.825C719.478 382.134 719.64 379.335 719.37 378.098C719.101 376.698 718.293 375.299 716.999 374.007C715.922 372.931 714.089 371.747 712.904 371.424C711.718 371.047 709.293 370.616 707.515 370.455C705.575 370.293 702.234 370.563 699.162 371.101C696.36 371.585 692.804 372.123 691.349 372.285C689.57 372.5 687.738 372.285 685.96 371.747C684.451 371.262 681.595 369.701 679.493 368.248C677.391 366.795 674.428 364.212 672.811 362.435C671.248 360.713 669.093 357.43 667.961 355.223C666.237 351.725 666.021 350.648 665.806 346.343C665.698 343.06 665.913 340.369 666.506 338C666.991 336.063 669.416 330.412 671.895 325.352C674.428 320.293 678.254 313.027 680.517 309.206C682.78 305.384 685.529 301.348 686.66 300.325C688.223 298.818 690.971 297.527 699.971 294.19C706.168 291.875 712.257 289.83 713.443 289.669C714.736 289.507 716.676 289.776 718.293 290.314C719.748 290.799 722.819 292.36 725.029 293.813C727.238 295.212 730.525 296.934 732.304 297.634C734.89 298.549 736.669 298.818 740.926 298.818C744.914 298.818 747.231 298.549 749.817 297.688C751.757 297.096 754.398 295.912 755.745 295.051C757.092 294.243 759.032 292.683 760.056 291.66C761.08 290.637 762.427 288.861 763.02 287.677C763.559 286.493 764.152 283.963 764.259 282.026C764.421 279.55 764.206 277.613 763.505 275.298C762.858 273.253 761.673 271.262 760.272 269.647C759.032 268.301 756.769 266.525 755.152 265.664C753.536 264.803 750.41 262.865 748.201 261.412C745.991 259.905 742.489 257.483 740.387 256.03C738.07 254.362 735.806 253.177 732.573 252.693V255.007C732.573 256.245 733.166 258.667 733.866 260.39C734.567 262.058 735.321 264.319 735.537 265.341C735.806 266.525 735.699 267.386 735.321 267.656C734.998 267.871 734.405 267.494 733.92 266.687C733.489 265.933 731.711 263.996 729.986 262.327C728.316 260.659 725.568 258.237 723.951 256.999C722.334 255.761 719.748 254.092 718.293 253.231C716.299 252.155 715.221 251.832 714.089 252.101C713.281 252.263 711.018 253.339 708.97 254.523C706.976 255.653 704.336 257.752 703.042 259.206C701.749 260.659 700.402 262.812 699.971 263.996C699.54 265.18 698.839 267.494 698.408 269.109C697.923 270.723 697.061 272.876 696.468 273.845C695.875 274.76 694.366 276.321 693.073 277.236C691.834 278.097 689.678 279.227 688.223 279.658C686.068 280.304 685.475 280.304 684.181 279.658C683.373 279.281 682.295 277.989 681.703 276.859C680.894 275.083 680.786 274.437 681.325 272.769C681.649 271.531 683.319 269.27 685.313 267.117C687.199 265.072 689.139 262.65 689.624 261.735C690.109 260.766 690.702 259.044 690.864 257.968C691.025 256.837 690.756 253.393 690.271 250.271C689.732 247.149 689.516 243.813 689.678 242.898C689.894 241.66 691.187 239.884 693.827 237.246C696.252 234.77 698.192 232.241 699.055 230.357C700.24 227.827 700.348 226.913 700.078 223.899C699.917 221.961 699.27 218.947 698.677 217.171C698.085 215.395 696.63 212.596 695.552 210.981C694.366 209.367 691.78 206.783 689.57 205.061C687.361 203.446 684.882 201.132 683.966 199.948C683.05 198.764 681.703 196.449 680.948 194.835C680.194 193.22 679.17 190.314 678.631 188.376C678.092 186.116 677.93 184.393 678.2 183.532C678.415 182.779 679.278 181.756 680.032 181.272C680.786 180.734 682.349 180.088 683.589 179.872C684.774 179.657 686.714 179.657 687.9 179.872ZM666.075 211.52C666.183 211.52 668.392 212.811 670.979 214.426C673.619 216.041 676.529 218.14 677.499 219.162C679.116 220.723 679.278 221.154 678.9 222.822C678.685 223.845 677.823 225.459 677.068 226.32C676.26 227.182 674.428 228.689 672.973 229.657C671.518 230.626 669.254 231.541 667.907 231.756C665.859 232.026 665.374 231.918 664.782 231.111C664.404 230.519 664.135 229.227 664.135 228.204C664.135 227.182 664.62 225.136 665.267 223.629C666.291 221.315 666.398 220.292 666.129 216.256C665.967 213.619 665.913 211.52 666.075 211.52ZM529.792 263.027C529.845 263.135 529.738 263.619 529.468 264.157C529.199 264.641 527.474 266.902 525.588 269.109C523.702 271.369 520.199 275.298 517.828 277.882C515.457 280.465 513.086 282.726 512.547 282.833C512.062 282.995 508.182 281.488 503.925 279.55C499.722 277.613 493.525 274.491 484.094 269.378L487.759 269.001C489.753 268.84 494.602 268.409 498.429 268.032C502.255 267.709 508.937 266.848 513.248 266.095C517.559 265.341 523.002 264.319 525.319 263.78C527.69 263.242 529.684 262.919 529.792 263.027ZM505.057 370.293C505.272 370.293 507.482 370.67 510.015 371.101C512.547 371.531 517.774 372.231 521.6 372.715C525.427 373.146 532.971 373.684 538.306 373.846C543.641 374.007 550.646 373.953 553.933 373.63C558.352 373.254 560.346 373.254 561.747 373.738C562.771 374.115 566.921 376.86 570.908 379.927C574.896 382.995 579.854 386.494 581.955 387.678C584.057 388.862 587.775 390.692 590.308 391.661C592.841 392.683 598.068 394.352 601.894 395.374C605.72 396.397 609.654 397.689 610.516 398.227C611.378 398.765 612.294 399.626 612.51 400.111C612.779 400.595 612.941 401.725 612.941 402.586C612.941 403.448 612.51 405.008 612.025 405.923C611.54 406.892 609.061 409.906 606.528 412.543C603.996 415.234 601.247 418.625 600.493 420.078C599.685 421.585 598.014 425.461 596.775 428.69C595.481 431.919 593.811 435.579 593.002 436.763C591.925 438.378 590.47 439.454 587.021 441.177C584.542 442.414 581.039 444.513 579.261 445.913C577.213 447.42 575.704 448.227 575.219 448.012C574.788 447.85 572.956 447.205 571.178 446.612C569.184 445.967 565.681 445.482 562.017 445.267C557.328 445.052 555.55 444.729 553.395 443.706C551.886 443.006 548.868 441.984 546.659 441.446C544.449 440.907 541.809 440.046 540.839 439.562C539.923 439.024 538.629 438.001 538.036 437.14C537.498 436.333 536.258 432.78 535.396 429.228C534.48 425.676 533.133 421.532 532.432 420.078C531.678 418.571 529.684 416.042 527.959 414.427C526.235 412.813 523.271 410.391 521.331 409.045C519.445 407.699 516.158 404.578 513.948 402.048C511.739 399.519 509.26 396.02 508.398 394.244C507.482 392.468 506.296 389.077 505.703 386.709C505.111 384.341 504.356 380.25 504.033 377.559C503.548 373.953 503.602 372.392 504.033 371.477C504.356 370.832 504.841 370.293 505.057 370.293Z" fill="#9EBA50"/>
<path d="M461.569 366.472C461.569 370.616 461.731 374.599 462 375.298C462.269 375.944 464.964 378.528 467.982 381.057C471.053 383.587 475.849 388.054 478.705 391.068C481.561 394.028 485.495 398.765 487.489 401.563C489.483 404.362 493.093 410.605 495.572 415.503C498.86 422.123 500.692 425.137 502.686 427.29C504.194 428.851 506.835 430.842 508.506 431.704C510.23 432.565 512.655 433.587 513.894 434.018C515.188 434.448 517.667 435.148 519.445 435.579C521.223 436.009 523.756 436.547 525.103 436.763C526.828 437.032 527.744 436.924 528.175 436.386C528.714 435.848 528.714 434.987 528.067 432.188C527.636 430.25 526.935 427.613 526.45 426.268C525.965 424.922 524.995 423.038 524.241 422.123C523.54 421.154 521.924 419.701 520.63 418.894C519.391 418.14 516.319 415.719 513.787 413.566C511.254 411.413 507.967 408.13 506.458 406.246C504.949 404.416 503.224 401.994 502.632 400.971C502.039 399.949 500.907 397.527 500.153 395.589C499.398 393.652 498.267 389.669 497.62 386.709C497.027 383.748 496.327 378.904 496.003 375.944C495.734 372.984 495.411 370.185 495.249 369.755C495.087 369.324 494.279 368.678 493.471 368.302C492.662 367.925 489.052 366.902 485.495 366.041C481.939 365.126 475.741 363.296 471.754 361.897C467.766 360.551 463.832 359.313 463.078 359.152L461.677 358.883L461.569 366.472Z" fill="#70BBC9"/>
<path fill-rule="evenodd" clip-rule="evenodd" d="M462.862 83.7468C466.149 83.8544 470.838 84.4464 473.37 84.9847C475.903 85.5767 479.514 86.5993 481.454 87.3528C483.394 88.0525 486.411 89.398 488.19 90.313C489.968 91.1742 493.094 93.1656 495.195 94.6187C497.297 96.0719 500.638 98.763 502.74 100.593C505.811 103.284 506.835 103.93 508.398 103.93C509.907 103.93 511.146 103.23 514.864 100.27C517.397 98.2786 520.792 95.749 522.409 94.6726C524.025 93.5961 526.612 92.0891 528.067 91.3356C529.576 90.6359 532.809 89.398 535.342 88.5907C537.875 87.8372 542.24 86.9761 545.042 86.5993C547.952 86.2764 551.886 86.1687 554.203 86.384C556.412 86.5993 559.915 87.1913 562.017 87.7296C564.118 88.2678 567.352 89.398 569.292 90.313C571.232 91.1742 574.734 93.327 577.105 95.1031C579.477 96.8792 582.71 99.7856 584.326 101.508C585.943 103.284 588.638 106.513 590.254 108.72C591.925 110.927 594.404 114.963 595.805 117.601C597.152 120.238 598.876 124.167 599.631 126.212C600.385 128.257 601.355 131.433 601.786 133.209C602.217 134.985 602.756 137.138 602.972 138.053C603.295 139.56 603.08 139.398 599.523 136.061C597.421 134.016 594.296 131.487 592.571 130.41C590.901 129.334 587.452 127.611 584.919 126.643C582.386 125.62 578.992 124.49 577.375 124.005C575.758 123.575 571.878 123.09 568.753 122.875C564.334 122.606 562.178 122.767 558.783 123.521C556.412 124.059 552.532 125.459 550.161 126.696C547.682 127.934 544.449 130.195 542.617 131.917C540.839 133.586 538.629 136.384 537.659 138.107C536.743 139.829 535.558 142.735 535.126 144.511C534.641 146.288 534.264 149.086 534.264 150.701C534.264 152.316 534.749 155.599 535.342 157.967C535.935 160.335 537.605 164.748 539.114 167.816C540.731 171.153 543.102 174.813 545.096 177.235C546.928 179.334 549.892 182.402 551.724 183.963C553.502 185.524 557.436 188.538 560.4 190.637C563.364 192.736 567.944 196.18 570.531 198.279C573.172 200.378 576.028 203.177 576.89 204.523C577.968 206.137 578.453 207.644 578.453 208.99C578.453 210.497 578.022 211.466 576.62 213.026C575.65 214.103 572.309 216.794 569.238 219.001C566.166 221.207 560.454 224.652 556.628 226.643C552.802 228.635 547.197 231.164 544.234 232.241C541.27 233.371 536.42 234.986 533.456 235.793C530.492 236.654 525.534 237.946 522.409 238.699C519.283 239.399 512.978 240.529 508.398 241.229C501.392 242.252 497.89 242.467 486.573 242.413C478.813 242.413 470.945 242.144 467.982 241.713C465.179 241.337 461.03 240.745 458.821 240.314C456.611 239.883 452.731 239.076 450.199 238.484C447.666 237.892 443.193 236.654 440.229 235.739C437.265 234.77 432.9 233.21 430.529 232.241C428.158 231.218 424.332 229.55 422.015 228.527C419.752 227.451 417.704 226.159 417.542 225.674C417.327 225.136 417.381 224.114 417.596 223.36C417.812 222.607 419.374 220.615 421.045 218.893C422.715 217.171 426.11 214.318 428.643 212.596C431.176 210.927 436.726 207.375 441.037 204.792C445.349 202.208 450.306 199.087 452.085 197.903C453.863 196.718 456.988 194.35 459.09 192.628C461.192 190.96 464.587 187.784 466.742 185.577C468.844 183.424 471.862 179.818 473.478 177.612C475.041 175.405 477.358 171.53 478.598 169C479.837 166.471 481.346 162.488 481.993 160.12C482.585 157.752 483.07 154.468 483.07 152.854C483.07 151.239 482.855 148.548 482.531 146.933C482.262 145.319 481.076 142.143 479.999 139.937C478.759 137.461 476.819 134.77 474.987 132.886C473.37 131.217 470.999 129.226 469.706 128.473C468.467 127.665 465.934 126.427 464.048 125.674C462.216 124.92 458.336 123.844 455.426 123.252C452.138 122.552 448.043 122.175 444.271 122.175C440.984 122.175 436.511 122.552 434.14 123.037C431.876 123.521 428.535 124.382 426.757 124.974C424.979 125.566 421.799 126.858 419.752 127.827C417.704 128.849 412.962 131.594 409.243 133.909C405.525 136.277 400.837 139.398 398.789 140.852C396.795 142.251 393.131 145.48 390.706 148.01C388.281 150.539 385.048 154.522 380.683 161.196V158.505C380.683 157.052 381.006 153.769 381.437 151.239C381.868 148.71 383.161 144.135 384.239 141.013C385.317 137.891 387.095 133.424 388.173 131.056C389.305 128.688 391.352 124.813 392.807 122.445C394.262 120.076 396.795 116.309 398.52 114.102C400.19 111.895 403.477 108.182 405.795 105.867C408.166 103.607 411.992 100.324 414.363 98.6015C416.734 96.9331 420.883 94.4034 423.524 93.0041C426.164 91.6047 430.314 89.7748 432.685 88.9136C435.056 88.0525 439.636 86.6531 442.924 85.8458C446.211 85.0923 450.683 84.2312 452.893 83.962C455.102 83.6929 459.575 83.5853 462.862 83.7468ZM504.356 155.706C502.847 156.406 500.853 157.859 499.884 158.936C498.967 160.066 497.728 161.734 497.243 162.703C496.704 163.726 496.327 165.717 496.327 167.655C496.273 169.861 496.596 171.584 497.351 172.983C497.944 174.167 499.399 175.836 500.584 176.697C501.77 177.504 504.41 178.742 506.512 179.334C509.314 180.141 511.2 180.41 513.787 180.195C515.727 180.034 518.475 179.388 519.984 178.742C521.439 178.096 523.594 176.643 524.726 175.567C526.127 174.167 527.043 172.66 527.582 170.615C528.283 168.247 528.337 167.17 527.852 165.233C527.528 163.833 526.397 161.842 525.211 160.443C524.079 159.097 521.87 157.429 519.984 156.514C517.343 155.222 515.834 154.899 511.901 154.684C507.59 154.415 506.781 154.522 504.356 155.706ZM511.362 183.155C511.254 183.478 510.931 185.362 510.607 187.3C510.284 189.237 509.476 191.605 508.775 192.52C508.128 193.489 506.458 194.888 505.003 195.642C503.225 196.611 501.554 196.988 499.345 197.041C497.297 197.095 495.572 196.772 494.117 196.019C492.932 195.481 490.399 193.328 488.513 191.282C486.681 189.237 484.471 187.138 483.663 186.654C482.909 186.116 481.4 185.685 480.376 185.685C479.244 185.685 478.005 186.062 477.25 186.761C476.55 187.407 476.065 188.43 476.065 189.345C476.065 190.152 476.604 191.874 477.304 193.22C477.951 194.566 479.622 196.772 481.023 198.172C482.478 199.625 485.01 201.455 486.681 202.316C488.405 203.177 491.154 204.146 492.77 204.523C494.441 204.899 497.836 205.115 500.584 204.953C505.057 204.792 505.757 204.576 509.583 202.477C511.901 201.239 514.164 200.217 514.595 200.217C515.026 200.217 516.05 200.701 516.858 201.239C517.721 201.831 519.445 202.8 520.792 203.392C522.139 203.984 524.187 204.523 525.373 204.523C526.558 204.523 528.714 204.146 530.223 203.715C531.678 203.285 534.049 202.047 535.45 201.024C536.905 200.002 538.791 198.01 539.653 196.611C540.569 195.158 541.539 192.843 541.862 191.336C542.24 189.883 542.347 187.999 542.132 187.192C541.97 186.331 541.27 185.308 540.569 184.824C539.815 184.286 538.845 184.124 537.875 184.286C537.066 184.447 535.881 185.147 535.18 185.846C534.534 186.546 532.648 188.645 531.031 190.529C529.414 192.413 527.259 194.296 526.289 194.781C524.564 195.588 524.403 195.588 522.032 194.296C520.684 193.543 519.014 192.197 518.313 191.336C517.667 190.475 516.858 188.645 516.481 187.3C516.158 185.954 515.511 184.339 515.08 183.694C514.649 182.94 513.787 182.456 512.978 182.456C512.224 182.456 511.523 182.779 511.362 183.155Z" fill="#FDDDA9"/>
<path fill-rule="evenodd" clip-rule="evenodd" d="M515.295 8.61084C515.619 8.61084 515.942 8.93377 515.942 9.31052C515.942 9.63345 515.188 11.1943 514.271 12.6475C513.301 14.1545 510.769 17.4376 508.613 20.0749C506.404 22.6583 504.625 25.1879 504.625 25.6723C504.572 26.2105 505.057 27.287 505.703 28.0943C506.35 29.0092 507.481 29.7089 508.505 29.9242C509.906 30.1933 511.577 29.6551 516.75 27.287C520.307 25.6723 524.564 23.95 526.181 23.4656C527.797 22.9812 531.731 22.3354 534.911 22.0663C538.144 21.7433 541.108 21.6895 541.593 21.9048C542.239 22.2277 541.808 22.9274 539.276 25.0803C537.551 26.5873 533.725 29.386 530.761 31.3236C527.797 33.2073 525.211 35.1987 524.941 35.6831C524.726 36.1675 524.564 37.0825 524.564 37.6745C524.564 38.2666 525.211 39.3968 526.019 40.2041C527.312 41.442 527.851 41.6035 529.953 41.3344C531.3 41.2268 533.833 40.4194 535.611 39.6659C537.767 38.6971 539.761 38.2127 541.539 38.2127C543.209 38.2127 545.58 38.751 547.736 39.6121C549.676 40.3656 552.909 41.8726 555.011 42.9491C557.113 43.9717 560.831 46.1784 563.364 47.793C565.896 49.4077 569.13 51.722 570.639 52.9061C572.094 54.0901 575.004 56.5121 577.051 58.342C579.099 60.1182 583.302 64.5315 586.428 68.0838C589.499 71.636 593.757 76.9643 595.804 79.9245C597.852 82.8847 600.924 88.1054 602.702 91.4962C604.426 94.8869 606.851 100.215 608.037 103.337C609.276 106.459 611.001 111.518 611.863 114.639C612.779 117.761 614.126 123.197 614.881 126.749C615.635 130.302 616.551 136.222 616.982 139.936C617.414 143.649 617.791 150.269 617.791 154.737C617.791 159.15 617.414 165.232 616.982 168.192C616.551 171.152 615.689 175.566 615.096 177.988C614.504 180.463 613.049 184.931 611.863 187.945C610.624 191.012 608.145 196.018 606.313 199.086C604.48 202.1 601.409 206.621 599.469 209.043C597.583 211.411 593.649 215.717 590.847 218.515C588.044 221.314 583.68 225.243 581.147 227.181C578.614 229.172 574.034 232.401 570.908 234.446C567.782 236.438 562.07 239.667 558.244 241.551C554.418 243.489 548.598 246.072 545.311 247.364C542.024 248.602 536.473 250.485 532.917 251.508C529.36 252.531 523.648 254.038 520.253 254.791C516.858 255.545 511.631 256.513 508.667 256.944C505.703 257.375 499.991 258.02 496.003 258.397C491.369 258.774 484.202 258.882 476.334 258.666C464.91 258.343 463.886 258.397 462.97 259.258C462.431 259.797 462 260.981 462.054 261.949C462.054 263.187 462.593 264.318 463.886 265.717C464.856 266.847 467.496 269.108 469.652 270.83C471.861 272.498 476.55 275.728 480.106 277.988C483.663 280.249 489.752 283.639 493.578 285.523C497.404 287.407 503.386 290.098 506.781 291.497C510.176 292.897 515.78 294.942 519.175 296.126C522.57 297.256 527.69 298.763 530.492 299.517C533.294 300.217 538.036 301.293 541 301.885C543.964 302.423 549.407 303.284 553.125 303.769C556.843 304.253 567.244 305.222 576.297 305.975C585.35 306.783 594.188 307.698 595.966 308.128C597.744 308.505 600.547 309.42 602.163 310.12C603.78 310.873 605.935 312.273 606.959 313.295C607.983 314.318 609.276 316.094 609.761 317.278C610.3 318.462 611.055 321.476 611.378 324.006C611.917 327.881 611.863 329.226 611.109 332.886C610.624 335.254 609.546 338.645 608.684 340.421C607.875 342.197 606.205 344.889 605.073 346.396C603.942 347.903 601.517 350.378 599.738 351.939C597.96 353.5 594.565 355.653 592.194 356.837C589.823 357.967 585.458 359.528 582.494 360.228C579.53 360.981 576.243 361.735 575.219 361.896C574.195 362.058 571.285 362.488 568.752 362.757C566.22 363.08 559.915 363.565 554.742 363.834C548.868 364.103 541.754 364.103 535.881 363.78C530.707 363.511 522.57 362.757 517.828 362.165C513.086 361.573 505.919 360.497 501.931 359.743C497.943 358.99 490.992 357.483 486.573 356.353C482.1 355.168 475.472 353.123 471.754 351.832C468.035 350.486 462.269 348.172 458.928 346.665C455.641 345.158 450.414 342.574 447.342 340.852C444.324 339.183 439.313 336.116 436.187 334.07C433.062 331.971 427.619 327.989 424.062 325.136C420.506 322.283 415.171 317.709 412.207 314.91C409.243 312.111 406.01 309.528 405.04 309.151C404.124 308.72 403.1 308.397 402.777 308.397C402.453 308.397 401.537 308.989 400.621 309.743C399.382 310.819 399.004 311.519 399.004 313.08C399.004 314.425 399.543 315.986 400.513 317.547C401.375 318.893 404.824 322.445 408.219 325.459C411.614 328.473 416.303 332.456 418.674 334.286C421.045 336.062 425.625 339.345 428.912 341.498C432.2 343.651 438.019 347.041 441.846 348.979C445.672 350.97 449.336 353.016 449.929 353.661C450.899 354.576 451.007 355.545 451.114 362.219C451.276 368.624 451.168 369.754 450.468 369.754C450.037 369.754 448.528 369.162 447.073 368.462C445.672 367.763 443.193 366.686 441.576 366.04C439.959 365.448 436.403 364.372 433.762 363.618C431.122 362.919 426.38 361.896 423.254 361.466C420.129 360.981 414.039 360.604 409.62 360.604C403.854 360.604 400.19 360.874 396.148 361.681C392.376 362.434 390.328 363.08 389.574 363.834C388.819 364.587 388.496 365.664 388.496 367.332C388.496 368.624 388.819 370.023 389.197 370.4C389.736 370.938 393.346 371.1 405.094 371.1C418.674 371.153 420.883 371.261 425.679 372.338C428.643 372.983 432.631 374.006 434.571 374.652C436.511 375.244 440.606 376.912 443.732 378.258C446.857 379.657 452.3 382.725 455.857 385.039C460.76 388.269 463.994 391.014 469.382 396.342C474.394 401.401 477.52 405.061 480.322 409.313C482.477 412.542 486.088 419.001 488.351 423.576C491.746 430.573 492.932 432.403 495.572 434.986C497.566 437.031 500.099 438.754 502.578 439.938C504.733 440.96 508.344 442.413 510.553 443.167C512.763 443.92 518.205 445.212 522.678 446.073C527.097 446.934 533.563 448.226 536.958 448.872C540.353 449.518 544.341 450.487 545.85 451.079C547.305 451.617 549.568 452.801 550.808 453.716C552.101 454.577 553.772 456.461 554.58 457.86C555.604 459.69 556.089 461.466 556.25 463.942C556.412 466.795 556.196 468.302 554.957 472.015C554.095 474.545 552.532 477.936 551.508 479.55C550.43 481.165 548.221 483.695 546.604 485.094C544.988 486.547 541.485 488.808 538.844 490.099C536.204 491.391 532.162 492.952 529.953 493.49C527.743 494.082 523.379 494.943 520.253 495.428C516.535 496.02 509.745 496.396 500.584 496.612C490.183 496.827 483.771 496.666 475.795 496.02C469.867 495.535 460.545 494.513 455.048 493.759C449.552 493.006 440.983 491.606 435.918 490.584C430.852 489.561 423.254 487.785 418.943 486.601C414.632 485.417 408.219 483.425 404.663 482.188C401.106 480.95 395.017 478.635 391.191 477.021C387.311 475.406 381.383 472.607 377.988 470.777C374.593 469.001 369.258 465.933 366.133 464.05C363.007 462.112 359.019 459.421 357.241 458.075C355.463 456.73 352.068 454.039 349.697 452.047C347.326 450.056 343.284 446.289 340.751 443.651C338.218 441.068 334.823 437.354 333.261 435.417C331.644 433.479 328.788 429.496 326.794 426.536C324.854 423.576 321.782 418.247 319.95 414.695C318.172 411.143 315.801 406.084 314.777 403.393C313.699 400.702 311.975 395.535 310.897 391.821C309.819 388.107 308.364 381.81 307.664 377.827C306.909 373.845 306.101 367.763 305.778 364.372C305.508 360.981 305.239 354.523 305.239 350.109C305.239 345.642 305.508 338.753 305.778 334.77C306.101 330.787 306.855 324.113 307.448 319.969C308.041 315.825 309.173 309.635 309.927 306.245C310.681 302.854 312.136 297.256 313.16 293.866C314.184 290.475 316.178 284.77 317.633 281.218C319.034 277.665 321.136 272.821 322.321 270.453C323.507 268.085 325.77 263.941 327.333 261.304C328.95 258.666 331.644 254.253 333.476 251.616C335.255 248.978 338.65 244.242 340.967 241.12C343.338 237.999 347.595 232.67 350.397 229.28C353.199 225.889 356.002 222.66 356.648 222.121C357.241 221.583 357.942 221.153 358.157 221.206C358.426 221.206 359.666 222.175 361.013 223.359C362.36 224.543 364.085 225.674 364.893 225.835C365.971 226.05 366.833 225.835 367.749 225.082C368.827 224.22 369.096 223.575 369.042 221.691C368.989 219.807 368.288 218.139 365.432 213.402C363.492 210.119 360.905 205.168 359.72 202.369C358.534 199.57 356.972 195.049 356.163 192.412C355.409 189.775 354.277 184.769 353.684 181.378C352.93 177.288 352.445 171.69 352.283 164.963C352.068 157.051 352.175 153.122 352.93 147.471C353.415 143.488 354.547 137.406 355.409 134.015C356.217 130.625 357.618 125.781 358.48 123.251C359.343 120.721 360.851 116.739 361.821 114.37C362.738 112.002 365.324 106.566 367.48 102.261C369.689 97.9548 373.407 91.55 375.725 87.9978C378.096 84.4455 381.706 79.494 383.7 76.9643C385.694 74.4347 389.897 69.8599 393.077 66.7382C396.202 63.6166 400.837 59.4185 403.315 57.4271C405.848 55.3819 410.806 51.8296 414.363 49.4077C417.919 47.0395 425.464 42.8414 431.068 40.0965C436.672 37.2978 443.516 34.3376 446.157 33.4226C448.797 32.5615 453.432 31.2159 456.395 30.4624C459.359 29.7089 465.395 28.6325 469.867 28.0943C474.34 27.5022 478.759 26.6411 479.675 26.1567C480.645 25.6723 483.07 23.95 485.064 22.3354C487.112 20.7207 491.261 18.0835 494.387 16.4688C497.512 14.8542 503.332 12.4322 507.32 11.0866C511.308 9.74109 514.918 8.66466 515.241 8.61084H515.295ZM449.174 75.6188C446.372 75.9955 442.007 76.8567 439.474 77.5026C436.942 78.1484 432.577 79.5478 429.775 80.5704C426.972 81.6468 422.931 83.3153 420.883 84.3917C418.781 85.4143 415.171 87.5134 412.8 89.0742C410.429 90.5812 406.279 93.6491 403.639 95.9096C400.998 98.1701 397.172 101.884 395.232 104.198C393.292 106.566 390.274 110.388 388.55 112.756C386.88 115.124 383.916 120.183 382.03 124.058C380.143 127.88 377.665 133.961 376.479 137.514C375.294 141.066 373.946 145.802 373.515 148.009C373.084 150.216 372.437 154.952 372.06 158.504C371.629 163.348 371.629 166.793 372.06 172.229C372.384 176.211 373.138 181.701 373.731 184.339C374.324 186.976 375.347 190.743 375.94 192.681C376.587 194.618 377.934 197.848 379.012 199.947C380.036 202.046 381.976 205.383 383.377 207.482C384.724 209.581 388.281 213.779 391.244 216.847C394.208 219.915 399.058 224.167 402.022 226.319C404.986 228.418 409.459 231.432 411.991 232.939C414.524 234.446 418.889 236.761 421.691 238.106C424.494 239.398 429.936 241.605 433.816 242.896C437.642 244.242 443.732 245.964 447.288 246.772C450.845 247.579 456.773 248.655 460.491 249.194C464.209 249.732 471.861 250.485 477.466 250.808C485.118 251.293 489.968 251.293 496.596 250.808C501.5 250.485 507.913 249.839 510.876 249.409C513.84 248.978 518.205 248.279 520.576 247.794C522.947 247.31 527.69 246.233 531.085 245.426C534.48 244.565 540.084 242.896 543.479 241.712C546.874 240.582 552.209 238.429 555.334 236.976C558.46 235.523 563.633 232.67 566.92 230.625C570.207 228.634 574.68 225.62 576.89 223.951C579.099 222.283 583.087 218.892 585.727 216.362C588.368 213.833 591.871 210.119 593.595 208.02C595.265 205.921 597.637 202.799 598.822 201.023C600.008 199.247 602.217 195.48 603.672 192.681C605.127 189.882 607.067 185.523 607.983 182.993C608.899 180.463 610.246 176.104 611.001 173.305C611.755 170.506 612.779 165.393 613.264 162.003C613.965 157.428 614.126 154.198 613.857 149.624C613.641 146.233 612.887 140.635 612.133 137.245C611.324 133.854 609.923 128.741 608.953 125.942C608.037 123.143 606.366 118.999 605.343 116.792C604.319 114.586 602.325 110.926 600.978 108.719C599.577 106.512 596.936 102.745 595.05 100.431C593.218 98.1163 590.254 94.8331 588.476 93.2185C586.697 91.55 583.787 89.128 582.009 87.8363C580.231 86.4908 576.62 84.3917 573.926 83.1C571.231 81.8083 567.028 80.1936 564.495 79.5478C560.508 78.4713 558.568 78.3637 549.676 78.3637C540.784 78.3637 538.898 78.5252 535.126 79.5478C532.755 80.2475 528.606 81.8083 525.965 83.0462C523.325 84.3379 519.175 86.5984 516.804 88.1592C514.433 89.6663 511.631 91.1733 510.607 91.55C509.583 91.8729 507.966 92.0344 507.104 91.8191C506.242 91.6577 503.063 89.8815 500.099 87.944C497.135 86.0064 492.77 83.4229 490.399 82.2389C488.028 81.0548 483.663 79.2787 480.699 78.2561C477.735 77.2873 472.777 76.1032 469.652 75.6726C466.526 75.1882 461.784 74.8653 459.144 74.8653C456.503 74.9191 451.977 75.242 449.174 75.6188Z" fill="#C88C59"/>
<path fill-rule="evenodd" clip-rule="evenodd" d="M631.802 161.465C633.149 161.465 637.245 162.111 640.963 162.864C644.681 163.618 649.747 164.802 652.28 165.501C654.812 166.201 660.04 167.87 663.866 169.215C667.692 170.507 672.003 172.122 673.458 172.714C674.859 173.359 675.99 174.005 675.99 174.221C675.99 174.49 674.967 175.458 673.727 176.427C672.434 177.45 670.871 179.011 670.171 179.926C669.416 181.002 668.985 182.401 668.985 183.639C668.985 184.77 669.686 187.299 670.548 189.291C671.41 191.336 672.865 194.78 673.781 196.987C674.697 199.194 676.422 202.477 677.661 204.253C678.9 206.029 682.08 209.528 684.774 212.057C687.415 214.587 690.217 217.708 690.971 219.054C691.941 220.722 692.373 222.229 692.373 223.898C692.373 225.244 691.888 227.181 691.349 228.204C690.81 229.226 688.816 231.702 686.93 233.694C684.343 236.492 683.319 238.053 682.727 240.152C682.295 241.713 681.918 243.866 681.918 244.888C681.918 245.911 682.295 248.118 682.727 249.732C683.158 251.347 683.535 253.608 683.535 254.684C683.535 255.814 683.158 257.537 682.673 258.451C682.188 259.42 680.14 261.896 678.146 263.995C675.667 266.525 674.32 268.462 673.889 269.915C673.565 271.1 673.296 272.822 673.296 273.683C673.296 274.544 673.619 276.374 674.104 277.72C674.535 279.065 675.829 281.218 676.907 282.51C678.038 283.801 680.032 285.524 681.379 286.277C683.319 287.408 684.505 287.677 687.307 287.677C689.84 287.623 691.618 287.246 693.72 286.331C695.336 285.578 697.546 283.963 698.677 282.671C699.863 281.433 701.587 278.796 702.557 276.751C703.581 274.759 705.09 271.476 705.952 269.377C706.976 266.848 708.323 264.802 709.94 263.242C711.988 261.25 712.581 260.927 713.82 261.25C714.682 261.412 716.461 262.219 717.862 263.026C719.317 263.887 722.119 266.094 724.167 268.032C726.214 270.023 729.07 273.522 730.687 276.105C732.304 278.635 734.19 281.003 734.944 281.326C735.699 281.702 736.83 282.025 737.423 282.025C738.016 282.025 739.094 281.595 739.902 281.057C740.764 280.465 741.626 279.011 742.273 276.912C742.866 275.136 743.512 272.499 744.159 268.516L749.009 271.53C751.704 273.145 754.667 275.351 755.637 276.374C756.877 277.773 757.362 278.742 757.362 280.142C757.362 281.164 757.038 282.671 756.607 283.479C756.23 284.34 754.937 285.631 753.805 286.439C752.62 287.246 750.356 288.484 748.74 289.237C747.123 289.991 743.944 290.852 741.734 291.121C738.609 291.498 736.992 291.444 734.729 290.852C733.112 290.422 731.172 289.668 730.418 289.184C729.663 288.699 727.777 287.246 726.214 285.954C724.436 284.501 722.281 283.317 720.287 282.779C718.185 282.187 716.191 281.972 713.982 282.187C712.203 282.348 708.054 283.479 704.821 284.609C701.587 285.793 695.498 288 691.349 289.56C687.199 291.121 683.05 292.897 682.188 293.543C681.325 294.189 678.415 298.118 675.775 302.262C673.08 306.353 669.147 313.134 667.045 317.279C664.89 321.423 662.249 327.343 661.225 330.465C660.201 333.586 659.07 337.946 658.692 340.153C658.369 342.359 658.207 346.019 658.369 348.226C658.531 350.433 659.123 353.823 659.77 355.761C660.363 357.699 662.033 361.089 663.488 363.296C664.943 365.503 667.692 368.786 669.578 370.508C671.464 372.284 674.212 374.491 675.721 375.514C677.176 376.482 679.978 377.774 681.918 378.366C684.181 379.066 686.93 379.443 689.732 379.443C692.103 379.443 696.576 378.904 699.701 378.312C703.096 377.613 706.114 377.236 707.246 377.451C708.27 377.613 709.832 378.366 710.695 379.012C712.203 380.25 712.203 380.304 711.826 384.017C711.557 386.116 711.449 388.754 711.503 389.938C711.557 391.122 712.257 394.513 713.012 397.473C714.089 401.725 714.305 403.608 714.089 406.353C713.928 408.291 713.281 411.305 712.635 413.081C712.042 414.857 710.21 418.463 708.647 421.154C707.084 423.845 705.144 427.236 704.39 428.689C703.635 430.143 702.288 433.318 701.318 435.686C700.402 438.054 698.947 442.683 698.139 445.912C697.276 449.142 695.767 453.986 694.69 456.677C693.612 459.368 692.696 462.113 692.696 462.866C692.696 463.62 692.319 465.503 691.888 467.064C691.241 469.217 690.54 470.294 688.762 471.693C687.523 472.715 682.996 475.245 678.685 477.29C674.374 479.336 668.123 482.027 664.782 483.265C661.495 484.449 655.297 486.44 651.04 487.624C646.837 488.808 640.37 490.369 636.652 491.069C632.934 491.822 627.114 492.683 623.719 493.114C619.839 493.544 611.217 493.814 600.547 493.814C591.224 493.814 583.087 493.652 582.494 493.383C581.47 493.006 581.524 492.899 583.141 491.23C584.111 490.315 585.135 488.754 585.458 487.893C585.943 486.601 585.889 485.686 585.189 483.318C584.704 481.704 584.434 480.035 584.596 479.658C584.758 479.336 585.889 478.421 587.075 477.667C588.314 476.86 589.554 475.514 590.039 474.438C590.47 473.415 590.685 472.016 590.524 471.316C590.362 470.67 589.985 469.648 589.661 469.056C589.284 468.248 589.338 467.549 589.985 466.203C590.47 465.288 590.847 463.727 590.847 462.866C590.847 462.005 590.578 460.659 590.308 459.906C590.039 459.152 588.638 457.322 584.65 453.124L586.266 451.51C587.129 450.595 588.745 449.411 589.769 448.872C590.793 448.334 593.003 446.827 594.619 445.536C596.236 444.244 598.553 441.714 599.685 439.938C600.87 438.216 602.756 434.448 603.888 431.65C605.074 428.851 607.121 424.707 608.522 422.5C609.923 420.293 612.833 416.579 614.935 414.319C617.091 412.005 619.246 409.206 619.731 408.129C620.216 406.999 620.647 404.739 620.647 403.124C620.647 401.456 620.216 399.141 619.623 397.796C619.031 396.396 617.468 394.405 615.905 393.006C613.965 391.337 612.241 390.368 609.708 389.669C607.768 389.13 603.888 388.054 601.086 387.247C598.284 386.493 594.296 385.148 592.194 384.286C590.093 383.425 586.266 381.326 583.572 379.658C580.878 378.043 577.698 375.837 576.405 374.814C575.166 373.791 574.142 372.822 574.142 372.607C574.142 372.338 576.513 371.585 579.369 370.885C582.279 370.185 586.698 368.893 589.23 368.032C591.763 367.171 595.643 365.449 597.852 364.265C600.062 363.081 602.864 361.358 604.05 360.444C605.235 359.529 607.283 357.806 608.522 356.622C609.816 355.384 611.971 353.016 613.265 351.348C615.258 348.71 616.067 348.065 618.438 347.365C620.001 346.88 623.342 345.427 625.874 344.136C628.407 342.844 631.802 340.799 633.419 339.615C635.035 338.43 637.784 336.062 639.508 334.34C641.286 332.672 643.334 330.088 644.089 328.581C645.22 326.374 645.49 325.19 645.436 321.853C645.382 318.893 645.651 317.279 646.406 315.825C646.945 314.695 647.43 313.027 647.43 312.165C647.43 311.304 647.16 310.013 646.837 309.367C646.514 308.667 645.49 307.375 644.52 306.46C643.604 305.545 642.203 303.931 641.34 302.854C640.532 301.724 638.915 300.271 637.73 299.517C636.544 298.764 633.688 297.526 631.371 296.719C627.814 295.535 626.09 295.265 619.138 295.05C614.235 294.943 609.438 295.05 607.013 295.481C604.804 295.804 601.301 296.557 599.2 297.095C595.481 298.01 595.266 298.01 578.722 296.503C569.507 295.642 558.622 294.458 554.472 293.866C550.323 293.22 543.425 292.036 539.114 291.121C534.803 290.26 529.253 288.915 526.72 288.215C524.187 287.461 521.978 286.6 521.708 286.331C521.493 286.008 523.056 283.909 525.211 281.649C527.313 279.334 530.438 275.621 532.109 273.414C533.779 271.207 536.689 267.117 538.629 264.372C542.024 259.42 542.132 259.313 546.12 257.698C548.329 256.837 552.101 255.222 554.472 254.2C556.843 253.177 561.424 250.97 564.711 249.248C567.998 247.579 573.441 244.35 576.836 242.143C580.231 239.883 585.458 236.115 588.422 233.747C591.386 231.379 596.02 227.289 598.661 224.651C601.355 222.014 605.343 217.439 607.552 214.479C609.816 211.519 612.887 206.89 614.396 204.253C615.959 201.616 618.33 196.772 619.677 193.489C621.024 190.206 622.749 185.631 623.449 183.263C624.204 180.894 625.282 176.535 625.874 173.575C626.467 170.615 626.952 167.385 626.952 166.416C626.952 165.501 627.222 164.156 627.545 163.456C627.922 162.81 628.461 162.111 628.784 161.895C629.108 161.68 630.455 161.465 631.802 161.465ZM661.225 204.145C660.363 204.791 659.339 206.083 658.854 206.944C658.261 208.182 658.153 209.528 658.477 212.595C658.8 215.879 658.638 217.493 657.668 221.207C657.022 223.736 656.483 226.858 656.483 228.204C656.483 229.549 656.698 231.487 657.022 232.509C657.345 233.532 658.585 235.308 659.77 236.438C661.171 237.676 662.734 238.537 663.973 238.753C665.105 238.968 667.476 238.968 669.254 238.807C671.141 238.591 673.727 237.838 675.452 236.977C677.068 236.169 679.493 234.447 680.84 233.101C682.188 231.702 683.912 229.442 684.613 227.935C685.313 226.481 686.014 224.167 686.121 222.822C686.283 221.476 686.068 219.431 685.636 218.247C685.259 217.063 684.074 215.179 683.05 213.995C681.972 212.865 678.793 210.281 675.99 208.29C673.188 206.298 670.063 204.253 669.093 203.769C668.177 203.284 666.344 202.908 665.051 202.908C663.542 202.961 662.249 203.338 661.225 204.145Z" fill="#70BBC9"/>
<path d="M517.451 0.0538027C525.049 -0.592057 528.067 4.25189 525.103 11.1411C524.618 12.2713 524.079 13.4016 523.486 14.8009C527.259 14.3165 530.761 13.7245 534.264 13.4016C539.545 12.971 544.826 13.3478 549.784 15.4468C554.742 17.492 555.442 20.8828 551.886 24.8656C550.7 26.2111 549.137 27.3414 548.275 29.1713C549.73 30.6245 551.67 30.9474 553.341 31.6471C576.89 41.5503 593.972 58.7194 607.283 79.979C618.276 97.471 624.635 116.685 627.168 137.191C627.599 140.474 627.76 143.758 627.868 147.095C627.976 151.454 628.03 151.616 632.287 152.1C640.208 152.907 647.968 154.414 655.674 156.513C698.623 168.246 732.304 193.004 757.577 229.334C764.367 239.022 769.756 249.571 774.229 260.766C780.264 276.159 784.198 291.821 785.922 308.021C792.766 371.961 761.08 434.664 711.88 469.271C688.061 486.063 661.872 496.935 633.095 501.725C622.479 503.555 611.809 504.686 601.032 504.686C590.362 504.686 579.8 503.232 569.292 501.402C561.585 500.057 553.772 499.303 546.12 497.474C544.665 497.097 543.317 497.904 541.97 498.55C529.63 504.201 516.535 506.3 503.117 506.623C465.988 507.431 430.044 501.295 395.178 488.593C369.474 479.228 346.41 465.88 328.357 444.836C313.807 427.882 304.969 408.237 299.688 386.709C295.377 369.163 294.138 351.294 295.539 333.425C298.557 294.781 312.352 260.174 336.602 229.818C341.506 223.683 346.194 217.332 352.014 211.95C353.415 210.604 352.661 209.582 352.068 208.397C346.787 197.795 344.092 186.492 342.637 174.867C341.182 162.541 342.152 150.324 344.577 138.214C349.643 113.133 359.989 90.4742 376.156 70.614C395.663 46.6095 420.506 30.8398 450.145 22.336C457.581 20.1831 465.072 18.1379 472.778 17.2229C476.819 16.7385 480.322 15.1239 483.394 12.4328C493.147 3.92896 505.111 1.18406 517.451 0.0538027ZM516.643 8.28852C515.457 8.5038 514.595 8.5038 513.84 8.71909C502.578 11.9484 491.746 15.8774 482.801 23.7892C480.861 25.4576 478.705 26.9108 475.957 27.1261C463.67 27.8796 451.761 30.5707 440.445 35.307C410.159 47.9013 386.179 67.7614 370.013 96.7713C356.81 120.507 349.697 145.372 352.23 172.767C353.523 186.546 356.972 199.571 363.923 211.573C365.378 214.21 367.103 216.686 368.558 219.269C369.635 221.153 369.689 223.145 367.965 224.652C366.187 226.212 364.3 225.728 362.63 224.382C361.804 223.737 361.031 223.037 360.313 222.283C358.642 220.561 357.187 220.615 355.678 222.499C352.122 226.858 348.403 231.003 344.955 235.416C334.339 248.871 324.693 262.973 318.172 278.904C311.005 296.288 307.071 314.534 305.616 333.317C304.323 349.249 304.646 365.126 307.826 380.788C316.502 423.307 341.614 453.071 379.928 472.124C407.842 486.01 437.858 492.683 468.79 495.644C481.148 496.828 493.543 497.24 505.973 496.881C514.272 496.72 522.516 495.859 530.546 493.706C542.401 490.477 551.562 484.126 555.442 471.801C558.891 460.875 554.903 453.286 543.91 450.11C538.845 448.657 533.617 447.904 528.444 446.989C519.66 445.482 510.931 443.867 502.847 439.884C497.027 437.086 492.824 432.995 490.184 426.859C479.46 401.725 461.623 383.856 435.541 374.652C428.535 372.177 421.314 370.993 413.985 370.67C407.249 370.347 400.567 370.239 393.831 371.154C390.005 371.692 388.119 369.701 388.658 366.31C389.035 364.211 390.436 363.027 392.43 362.65C396.041 361.951 399.705 361.143 403.423 360.928C418.835 360.174 433.762 362.274 447.773 369.109C448.743 369.593 449.713 370.401 451.222 369.862C451.923 365.395 451.492 360.874 451.276 356.353C451.115 353.931 449.821 352.586 447.612 351.563C431.391 344.189 417.219 333.91 404.393 321.584C402.723 319.916 400.891 318.355 399.813 316.148C398.789 313.888 398.681 311.627 400.621 309.851C402.669 308.075 404.878 308.559 406.764 310.336C407.788 311.197 408.812 312.112 409.782 313.027C414.417 317.655 419.374 321.853 424.494 325.944C453.701 349.572 487.974 359.905 524.726 363.242C536.15 364.265 547.682 364.857 559.161 363.996C568.375 363.296 577.482 362.327 586.32 359.582C602.756 354.523 612.941 340.314 611.917 325.567C611.432 319.378 609.977 313.619 603.78 310.551C600.223 308.829 596.451 307.698 592.517 307.214C581.416 305.922 570.261 305.438 559.161 304.254C545.635 302.854 532.432 300.486 519.553 296.019C500.261 289.345 481.885 280.841 466.042 267.655C464.694 266.525 463.293 265.448 462.593 263.78C461.299 260.712 462.7 258.398 466.042 258.398C467.389 258.344 468.736 258.344 470.083 258.452C480.43 259.582 490.776 259.367 501.069 258.236C518.906 256.191 536.258 251.831 552.748 244.566C571.663 236.223 587.937 224.382 600.708 208.021C616.821 187.299 620.431 163.51 617.036 137.622C616.767 135.9 616.552 134.177 616.282 132.455C612.564 110.711 605.181 90.528 591.17 73.0898C579.099 58.0735 564.927 45.856 546.658 38.8592C542.94 37.4599 539.491 37.1369 535.935 39.1821C533.941 40.3124 531.731 41.0659 529.468 41.2274C527.42 41.3888 525.75 40.6353 525.049 38.5363C524.456 36.6525 525.211 35.0917 526.935 34.0691C527.959 33.4232 529.091 32.8312 530.115 32.1853C534.803 29.3866 538.952 25.9958 543.048 22.336C541.97 21.3134 541.108 21.5825 540.3 21.5286C531.462 21.0442 523.271 23.2509 515.619 27.5028C514.164 28.3102 512.655 29.1175 511.092 29.6019C508.991 30.1939 506.943 29.7095 505.596 27.772C504.194 25.8344 505.326 24.2735 506.566 22.8204C507.913 21.2057 509.314 19.6449 510.661 18.0841C513.086 15.2315 515.349 12.2175 516.643 8.28852ZM633.957 161.357C628.245 160.55 626.952 161.573 626.629 167.385C626.575 167.924 626.575 168.462 626.467 168.946C622.479 194.242 610.516 215.017 590.955 231.487C577.105 243.112 561.532 251.778 544.557 258.021C542.994 258.613 541.647 259.205 540.623 260.766C535.288 269.054 529.522 277.02 522.57 284.071C521.978 284.717 521.169 285.255 521.169 286.493C522.516 287.408 524.133 287.731 525.696 288.161C545.796 293.92 566.489 295.696 587.182 297.472C589.823 297.688 592.463 297.957 595.05 298.333C607.714 294.674 618.06 294.297 625.766 295.588C629.7 296.234 633.041 297.311 635.682 298.602C638.215 299.894 640.37 301.563 641.663 303.5L643.388 306.138C647.322 308.075 648.453 312.435 645.975 316.256C645.436 317.117 644.52 317.924 644.843 319.055C646.837 326.267 642.957 331.218 638.053 335.524C631.856 341.122 624.635 345.158 616.659 347.688C615.689 348.011 615.043 348.603 614.504 349.356C605.989 361.574 593.703 367.548 579.099 370.724C577.105 371.208 575.058 371.692 572.848 372.231C581.686 379.927 591.224 385.524 602.433 388C605.936 388.808 609.546 389.292 612.833 391.014C621.455 395.589 623.288 405.815 616.282 412.543C610.462 418.14 606.097 424.545 603.457 432.08C600.816 439.615 596.343 445.32 588.907 448.98C586.913 449.949 585.512 451.564 584.272 453.394C586.644 455.224 588.583 457.215 589.661 459.206C590.362 460.444 591.17 462.436 590.523 464.642C590.146 465.934 589.392 466.849 588.476 467.549C588.512 467.585 588.548 467.62 588.583 467.656C591.601 471.424 590.901 475.676 586.536 477.667C583.841 478.959 583.734 480.412 584.704 482.78C586.266 486.548 585.835 488.27 582.979 491.069C582.332 491.715 581.255 491.93 581.201 493.383C584.057 493.706 586.859 494.352 589.715 494.352C601.301 494.352 612.887 494.729 624.419 493.275C645.705 490.638 665.859 484.556 684.882 474.653C689.139 472.393 692.372 470.078 692.696 464.642C692.965 459.206 696.522 454.578 697.546 449.357C699.539 438.916 703.743 429.497 709.347 420.509C714.143 412.866 716.137 404.685 712.85 395.697C711.449 391.875 711.072 387.893 712.095 383.802C713.065 380.142 711.988 378.581 708.323 377.397C704.605 376.267 701.156 377.72 697.707 378.474C689.408 380.304 681.541 379.658 674.589 374.437C660.363 363.727 655.297 350.971 660.363 333.694C664.458 319.97 672.164 308.237 679.762 296.396C681.164 294.135 683.427 292.736 685.906 291.821C693.199 289.13 700.491 286.457 707.784 283.802C714.952 281.218 721.688 281.756 727.4 287.246C735.86 295.427 749.656 290.798 755.475 285.524C758.224 283.102 758.493 278.15 755.799 275.782C752.35 272.714 748.039 270.831 743.674 268.086C743.674 271.584 742.92 274.275 742.057 276.912C741.357 279.227 740.441 281.541 737.531 281.756C734.621 281.972 733.327 279.926 732.088 277.774C728.585 271.584 724.166 266.256 717.808 262.703C713.389 260.228 712.257 260.174 708.754 263.834C707.623 265.072 706.868 266.525 706.222 268.032C704.767 271.476 703.312 274.921 701.641 278.204C699.486 282.456 696.091 285.362 691.51 286.923C685.906 288.807 681.271 286.977 677.553 282.887C674.104 279.119 672.541 274.598 674.32 269.431C675.236 266.848 677.176 265.125 679.116 263.457C683.373 259.905 684.99 255.599 683.104 250.217C681.81 246.342 681.918 242.52 683.481 238.699C684.612 235.9 686.93 234.07 688.923 232.025C693.881 227.02 694.097 221.315 689.301 216.094C687.522 214.103 685.582 212.165 683.535 210.496C679.493 207.16 676.583 203.123 674.589 198.333C673.242 195.103 672.056 191.767 670.494 188.645C668.284 184.232 668.446 181.756 672.003 178.203C673.404 176.804 675.074 175.674 676.637 174.382C675.883 173.36 674.966 173.09 674.104 172.767C661.171 167.493 647.861 163.295 633.957 161.357ZM562.717 481.758C561.585 481.596 560.723 481.65 560.077 482.726C558.783 484.772 557.436 486.817 556.089 488.862C559.807 490.692 571.07 489.131 573.926 486.602C575.381 485.31 574.088 484.933 572.848 484.233C569.615 482.888 566.166 482.242 562.717 481.758ZM570.154 467.925C566.112 467.387 565.25 468.033 565.142 472.231C568.807 473.684 572.633 473.523 576.351 472.554C577.752 472.231 579.961 471.693 577.051 469.486C574.842 468.625 572.471 468.248 570.154 467.925ZM691.618 181.002C688.115 178.957 684.666 178.688 680.948 180.356C678.254 181.594 677.122 183.639 677.769 186.331C679.601 193.919 682.349 200.755 689.462 205.33C695.875 209.474 698.947 216.202 699.917 223.629C700.725 230.034 696.953 234.286 692.426 238.107C689.947 240.152 688.923 242.951 689.355 246.18C689.624 248.118 689.732 250.109 690.217 251.993C691.672 257.59 690.217 262.111 685.906 265.933C684.074 267.601 682.295 269.377 681.325 271.746C680.14 274.383 680.679 276.751 682.565 278.904C684.397 280.949 686.606 280.626 688.87 279.765C693.935 277.827 697.653 274.437 698.731 269.054C700.078 262.111 703.527 257.106 710.048 254.253C710.263 254.2 710.425 254.038 710.587 253.931C714.305 251.455 715.544 251.509 719.263 254.038C725.298 258.075 730.956 262.488 735.483 269.054C737.692 262.757 730.956 258.667 733.058 253.123C735.321 252.854 737.1 253.769 738.77 255.061C744.321 259.313 750.033 263.188 756.176 266.525C764.906 271.261 767.223 284.178 760.11 291.283C754.29 297.149 746.692 299.141 738.501 298.764C732.196 298.495 727.184 294.996 722.173 291.713C718.185 289.076 714.197 288.592 709.778 290.206C703.419 292.574 697.061 295.104 690.594 297.311C687.792 298.28 685.798 299.894 684.289 302.37C678.469 312.058 672.811 321.853 668.23 332.187C663.38 343.005 664.189 353.339 672.326 362.489C675.182 365.664 678.631 368.194 682.241 370.401C685.528 372.446 689.139 372.984 692.965 372.392C698.246 371.585 703.527 370.131 709.455 370.777C717.969 372.338 720.933 376.805 718.724 385.202C717.969 388.108 718.077 390.853 718.993 393.705C721.526 401.079 721.795 408.399 718.939 415.826C717.323 419.916 715.329 423.738 712.958 427.398C706.275 437.57 704.767 449.788 700.078 460.767C699.593 461.951 698.785 463.458 699.971 464.965C701.587 464.75 702.719 463.62 703.958 462.759C714.143 455.869 723.143 447.688 731.711 438.916C746.045 424.33 757.038 407.538 764.259 388.377C770.025 373.199 774.013 357.483 776.061 341.337C776.33 339.184 776.115 337.3 774.067 335.901C772.558 334.824 771.588 333.156 770.672 331.488C767.978 326.859 766.738 321.746 765.553 316.579C764.798 313.35 763.505 310.174 763.343 306.783C768.409 305.33 769.648 305.976 771.157 310.605C772.289 314.049 773.366 317.494 774.444 320.938C775.037 322.93 775.576 324.921 777.192 326.967C777.677 317.386 777.624 308.29 775.899 299.302C770.241 269.539 757.685 243.112 738.07 219.861C724.867 204.146 709.132 191.497 691.618 181.002ZM563.633 453.501C563.957 454.111 564.262 454.739 564.549 455.385C564.819 455.977 566.813 457 569.399 458.13L579.261 459.745C578.722 459.35 578.147 458.937 577.536 458.507C573.872 456.192 568.968 454.147 563.633 453.501ZM506.727 370.293C504.141 369.809 503.44 370.616 503.44 373.092C503.44 375.675 503.709 378.259 504.141 380.788C505.38 387.731 506.943 394.567 511.847 400.11C515.349 404.039 518.906 408.183 523.379 410.928C530.546 415.288 533.941 421.639 535.126 429.551C535.288 430.466 535.611 431.381 535.773 432.295C536.689 437.301 539.491 440.207 544.665 441.176C548.922 441.983 552.802 443.329 556.089 445.482C563.472 444.621 570.531 446.235 576.243 448.711C579.907 445.428 583.841 442.522 588.691 440.799C591.925 439.669 593.811 436.709 595.104 433.587C596.038 431.398 596.918 429.174 597.744 426.913C599.846 421.101 602.756 415.826 607.66 411.789C609.869 409.906 611.702 407.645 612.833 404.9C614.127 401.617 613.372 399.249 610.139 397.742C608.037 396.719 605.72 395.966 603.403 395.481C592.679 393.059 582.71 388.969 574.034 382.026C570.8 379.389 567.405 377.021 564.172 374.491C562.879 373.468 561.478 373.092 559.861 373.038C556.197 372.93 552.64 373.576 549.03 373.684C534.803 374.168 520.738 372.876 506.727 370.293ZM465.233 359.529C463.994 359.044 462.808 358.237 461.407 358.883C461.407 364.157 461.353 369.378 461.461 374.652C461.461 376.159 462.754 377.128 463.94 378.043C478.49 389.023 490.237 402.586 497.189 419.378C500.746 427.882 506.35 432.134 514.487 434.448C515.457 434.717 516.427 435.094 517.936 435.471C520.684 436.278 523.486 436.978 526.396 437.301C528.336 437.516 529.36 436.44 528.983 434.771C527.582 428.743 526.989 422.231 520.577 418.625C518.421 417.441 516.697 415.557 514.757 413.996C506.35 407.538 500.53 399.464 498.267 388.915C497.027 383.102 496.111 377.344 495.896 371.477C495.788 368.84 494.656 367.979 492.285 367.44C483.07 365.449 474.017 362.812 465.233 359.529ZM636.867 323.791C632.071 325.244 627.437 326.913 622.964 328.958C620.054 330.303 618.815 335.417 620.916 337.408C627.329 334.232 633.257 330.357 636.867 323.791ZM637.676 313.296C635.682 312.219 633.957 312.166 631.586 312.758C628.137 312.973 624.904 313.942 621.833 315.449C620.054 316.31 620.162 317.924 620.539 319.431C620.916 321.046 622.318 320.669 623.341 320.454C628.622 319.216 633.419 317.117 637.676 313.296ZM624.473 303.554C620.539 302.908 615.635 302.747 609.654 303.5C609.762 303.536 609.851 303.59 609.923 303.662C614.989 307.322 619.677 307.537 625.281 305.922C626.647 305.528 628.03 305.205 629.431 304.953L629.377 304.738C627.976 304.254 626.359 303.823 624.473 303.554ZM530.815 262.273C514.703 266.471 498.913 268.462 482.747 268.893C484.471 269.862 486.142 270.831 488.244 272.015C495.465 275.782 502.793 279.442 510.284 282.779C512.116 283.586 513.248 283.425 514.541 281.918C517.613 278.473 520.9 275.136 523.918 271.584C526.235 268.839 528.983 266.256 530.815 262.273ZM455.749 75.2427C472.454 74.2739 487.759 79.3331 501.177 89.0748C506.188 92.6809 509.583 93.542 514.972 89.6669C522.57 84.2309 531.139 80.1404 540.515 78.7411C558.244 76.1576 574.303 80.2481 587.56 92.6809C601.678 106.029 609.492 122.767 612.833 141.766C613.749 146.987 613.695 152.261 613.534 157.805C609.815 193.004 591.116 217.601 560.777 233.963C545.796 242.036 529.468 246.288 512.709 248.871C500.907 250.701 488.998 251.239 477.089 250.647C450.091 249.194 424.494 242.736 402.399 226.374C388.82 216.255 378.365 203.661 374.378 186.6C369.905 167.332 371.522 148.709 379.228 130.517C388.442 108.827 403.208 92.4656 424.871 82.7777C434.679 78.472 445.079 75.8347 455.749 75.2427ZM502.847 100.324C486.735 85.4688 467.281 80.571 446.372 84.7153C413.716 91.1739 393.238 112.11 383.054 143.381C381.221 149.086 380.144 155.06 380.413 161.949C381.491 160.442 382.138 159.689 382.622 158.774C387.203 151.131 393.131 144.673 400.621 139.775C403.908 137.622 407.357 135.684 410.591 133.478C423.47 124.705 437.481 120.453 453.162 122.929C462.754 124.436 471.43 127.773 477.358 135.953C484.687 146.18 484.148 156.998 478.921 167.924C472.724 180.948 462.754 190.529 450.953 198.387C442.385 204.092 433.116 208.613 424.979 214.856C422.015 217.117 419.159 219.539 417.38 222.929C416.41 224.975 416.734 226.212 418.943 227.343C437.535 236.654 457.258 241.713 477.951 242.736C493.686 243.543 509.368 242.09 524.726 238.43C543.371 234.017 560.885 227.074 575.65 214.479C579.692 210.981 580.015 207.698 576.62 203.5C575.596 202.208 574.303 201.078 573.064 200.001C568.645 196.234 564.01 192.843 559.214 189.506C553.017 185.254 547.467 180.356 543.21 174.382C543.138 174.346 543.084 174.292 543.048 174.221C542.617 173.682 542.24 173.09 542.024 172.66C540.3 170.023 538.845 167.224 537.605 164.156C535.773 159.366 534.21 154.522 534.534 149.409C535.288 138.106 542.024 130.733 551.67 126.104C563.849 120.399 575.974 122.767 587.667 127.988C593.972 130.84 599.092 135.361 603.834 140.959C600.924 124.22 594.134 110.173 581.794 98.4398C574.357 91.5506 565.627 87.1911 555.55 86.2223C539.869 84.7153 526.181 89.8283 514.433 100.216C509.044 105.006 508.074 105.167 502.847 100.324ZM661.872 203.93C665.482 201.831 668.661 203.5 671.841 205.706C674.913 207.859 677.822 209.797 680.571 211.95C686.552 216.578 687.684 222.768 683.696 229.173C680.355 234.609 675.344 237.784 669.146 238.807C660.309 240.206 654.597 233.317 657.129 224.382C658.261 220.453 659.554 216.632 658.638 212.326C657.992 209.151 658.638 205.76 661.872 203.93ZM665.698 211.035C665.428 211.681 665.266 211.95 665.266 212.219C665.213 212.649 665.213 213.08 665.374 213.457C666.991 217.439 666.398 221.207 664.458 225.028C663.434 227.074 663.219 229.603 665.051 232.079C670.763 232.994 677.445 227.612 678.954 223.898C679.601 222.283 679.655 220.83 678.415 219.646C674.697 216.04 670.224 213.564 665.698 211.035ZM512.763 182.617C514.487 182.455 515.188 183.532 515.565 184.931C516.212 187.299 516.481 189.829 518.367 191.928C522.948 196.718 525.75 196.772 530.222 192.197C531.839 190.475 533.186 188.483 534.695 186.6C535.935 185.093 537.444 183.962 539.491 184.662C541.701 185.416 542.293 187.353 542.024 189.452C541.323 195.642 537.821 199.84 532.432 202.639C527.097 205.383 521.924 204.738 517.289 201.132C515.242 199.517 514.056 199.409 511.847 201.024C501.177 208.774 483.771 204.845 477.681 193.543C476.388 191.175 475.203 188.753 477.843 186.546C479.675 184.985 482.531 185.523 485.064 187.945C486.573 189.398 487.866 191.013 489.214 192.574C492.986 197.095 498.105 198.602 503.386 196.826C508.506 195.103 510.877 191.551 511.146 185.416C511.2 184.232 510.769 182.778 512.763 182.617ZM509.368 154.63C512.978 154.36 516.373 155.06 519.607 156.567C526.073 159.527 528.768 164.102 527.69 169.969C526.72 175.082 521.223 179.495 515.134 179.872C512.385 180.033 509.583 180.087 506.619 179.172C502.308 177.719 498.644 175.835 496.973 171.637C494.063 164.317 500.853 155.168 509.368 154.63ZM445.079 150.754C442.977 150.808 440.337 151.024 439.151 151.239C437.966 151.454 435.918 152.208 434.571 152.853C433.224 153.499 431.337 154.63 430.368 155.329C429.451 156.029 428.05 157.536 427.404 158.612C426.703 159.743 425.679 161.734 425.194 163.08C424.601 164.533 424.332 166.094 424.548 166.955C424.763 167.924 425.518 168.785 426.595 169.323C427.673 169.861 428.966 170.076 429.829 169.861C430.691 169.7 432.846 168.193 434.679 166.578C436.565 164.963 439.044 163.133 440.229 162.541C441.522 161.896 443.516 161.465 445.079 161.465C446.857 161.465 448.312 161.842 449.39 162.541C450.252 163.133 452.354 165.071 453.971 166.847C456.342 169.431 457.258 170.076 458.605 170.076C459.719 170.076 460.778 169.574 461.784 168.569C463.078 167.278 463.239 166.793 463.078 164.371C462.916 162.218 462.377 160.927 460.707 158.505C459.521 156.782 457.581 154.683 456.396 153.822C455.21 152.961 453.001 151.939 451.546 151.508C450.037 151.024 447.127 150.701 445.079 150.754ZM565.897 149.678C564.064 149.678 561.693 150.001 560.669 150.378C559.646 150.754 557.975 151.454 557.005 151.992C556.089 152.477 554.149 153.876 552.802 155.114C551.401 156.406 549.838 158.343 549.299 159.42C548.706 160.55 548.275 162.057 548.275 162.81C548.275 163.564 548.868 164.748 549.622 165.502C550.592 166.47 551.562 166.847 552.963 166.847C554.472 166.901 555.604 166.417 557.167 165.179C558.352 164.264 560.4 162.757 561.747 161.896C563.202 160.981 564.927 160.389 566.058 160.389C567.298 160.335 568.699 160.927 570.208 162.003C571.501 162.864 573.171 164.479 573.98 165.555C574.842 166.632 576.135 167.87 576.944 168.246C577.806 168.677 578.937 169 579.584 169C580.177 169 581.416 168.246 582.279 167.385C583.464 166.201 583.841 165.232 583.841 163.725C583.841 162.649 583.572 160.819 583.302 159.689C582.979 158.612 582.117 156.944 581.255 155.975C580.446 155.06 578.884 153.715 577.752 153.015C576.674 152.369 574.303 151.293 572.525 150.701C570.585 150.055 567.944 149.624 565.897 149.678Z" fill="black"/>
</g>
<defs>
<clipPath id="clip0_313_306">
<rect width="492" height="507" fill="white" transform="translate(295)"/>
</clipPath>
</defs>
</svg>
