<svg width="778" height="528" viewBox="0 0 778 528" fill="none" xmlns="http://www.w3.org/2000/svg">
<path d="M390.089 369.12C376.236 370.507 283.45 463.298 255.747 491C228.047 518.7 268.209 539.475 306.989 509.005C345.769 478.535 367.929 443.91 385.934 442.525C403.908 441.143 483.997 519.817 484.269 520.085C510.583 536.705 545.208 522.855 511.968 491C511.664 490.652 403.92 367.738 390.089 369.12ZM387.125 482.679C374.885 482.68 364.965 492.601 364.965 504.839C364.965 517.077 374.885 526.998 387.125 526.999C399.363 526.999 409.285 517.078 409.285 504.839C409.285 492.6 399.363 482.679 387.125 482.679ZM770.543 483.104C765.063 472.16 747.868 469.676 732.136 477.553C716.406 485.43 708.095 500.685 713.574 511.629C719.054 522.572 736.25 525.059 751.981 517.182C767.712 509.305 776.022 494.047 770.543 483.104ZM40.0925 477.553C24.3617 469.676 7.16558 472.16 1.68654 483.104C-3.7925 494.047 4.51752 509.305 20.2483 517.182C35.9791 525.059 53.1724 522.572 58.6542 511.629C64.1332 500.686 55.8233 485.43 40.0925 477.553ZM391.28 250C364.96 250.005 180.761 454.979 155.831 456.364C130.898 457.748 69.9585 388.499 35.3364 359.415C0.711532 330.331 -8.98343 366.34 10.4065 391.269C29.7964 416.199 119.818 520.072 155.831 521.459C191.838 522.844 369.115 320.64 391.28 315.095C413.44 309.555 587.946 521.455 618.418 520.074C648.888 518.689 740.297 416.2 767.998 388.499C795.697 360.8 759.688 346.95 734.758 367.725C709.828 388.5 650.273 460.519 618.418 460.519C586.561 460.516 417.595 250 391.28 250ZM282.059 291.701C315.299 259.846 280.674 245.996 254.36 262.616C254.11 262.862 174.002 341.559 156.025 340.176C138.02 338.791 115.86 304.166 77.0802 273.696C38.3003 243.227 -1.86454 264.001 25.8354 291.701H25.8381C53.5408 319.403 146.327 412.194 160.18 413.581C174.01 414.964 281.78 292.02 282.059 291.701ZM525.623 262.465C499.31 245.846 464.685 259.696 497.925 291.55C497.925 291.55 605.949 414.808 619.803 413.429C633.653 412.045 726.446 319.255 754.148 291.553V291.55C781.848 263.85 741.683 243.075 702.903 273.545C664.123 304.015 641.963 338.64 623.958 340.025C605.951 341.406 525.623 262.465 525.623 262.465ZM625.343 255.54C613.105 255.541 603.183 265.462 603.183 277.7C603.183 289.938 613.105 299.859 625.343 299.86C637.582 299.86 647.503 289.939 647.503 277.7C647.503 265.461 637.582 255.54 625.343 255.54ZM157.216 255.54C144.975 255.541 135.056 265.462 135.056 277.7C135.056 289.938 144.975 299.859 157.216 299.86C169.454 299.86 179.376 289.939 179.376 277.7C179.376 265.461 169.454 255.54 157.216 255.54Z" fill="#04642E"/>
<path fill-rule="evenodd" clip-rule="evenodd" d="M295.537 45.8701C295.912 45.9952 296.663 46.8713 297.164 47.7474C298.04 49.2493 297.977 49.9376 296.663 54.8813C295.912 57.9477 294.097 64.581 292.658 69.7749C290.092 78.9114 290.03 79.0991 289.467 76.6586C289.216 75.2818 289.091 70.0878 289.216 65.0816C289.404 59.1366 289.842 54.8813 290.53 52.6911C291.094 50.9389 292.283 48.5609 293.159 47.5597C294.097 46.4958 295.161 45.7449 295.537 45.8701ZM308.49 48.4984L309.805 50.6886C311.119 52.8788 311.119 52.8788 309.992 59.1366C309.429 62.5785 307.677 70.3382 306.175 76.3457C304.611 82.3532 303.109 87.5472 302.796 87.9226C302.483 88.2981 302.045 86.9214 301.795 84.1679C301.544 81.7274 301.544 75.9702 301.732 71.3394C301.92 66.5835 302.545 60.7011 303.234 57.8851C304.11 54.0678 304.798 52.4408 306.425 50.6886L308.49 48.4984ZM320.631 48.8112C321.131 48.8112 322.07 49.6248 322.633 50.5009C323.572 51.9402 323.759 53.6923 323.697 61.6398C323.697 70.1504 323.572 71.5271 322.007 76.0328C321.131 78.7862 319.379 82.6035 315.937 87.9226V84.1679C315.937 82.1029 316.375 74.218 316.876 66.646C317.502 58.0728 318.19 52.1279 318.753 50.8763C319.254 49.7499 320.067 48.8112 320.631 48.8112ZM439.592 81.3519C440.092 81.3519 440.593 82.228 440.843 83.417C441.094 84.9189 440.53 87.1717 438.653 91.9902C437.276 95.6198 435.649 98.999 435.086 99.4996C434.085 100.376 434.022 100.188 434.398 95.7449C434.648 93.1792 435.274 89.5497 435.837 87.6097C436.4 85.7324 437.276 83.5422 437.777 82.7912C438.278 81.9777 439.091 81.3519 439.592 81.3519ZM451.669 84.6686C452.17 84.7311 452.921 85.6698 453.359 86.6711C453.985 88.2981 453.86 89.5497 452.358 95.432C451.356 99.2493 449.792 104.381 448.791 106.884C447.852 109.387 446.851 111.202 446.601 110.951C446.35 110.701 445.85 108.511 445.474 106.07C445.099 103.692 444.974 100.188 445.161 98.248C445.412 96.3707 445.975 93.3044 446.475 91.3644C447.039 89.4871 448.165 87.1717 449.104 86.233C449.98 85.2318 451.169 84.5434 451.669 84.6686ZM461.807 86.3582C462.12 86.3582 462.558 86.984 462.808 87.7975C463.059 88.5484 463.184 91.6773 463.121 94.6811C462.996 98.4984 462.621 100.939 460.618 105.445L460.555 98.8738C460.493 95.3069 460.618 90.989 460.868 89.3619C461.056 87.7349 461.494 86.3582 461.807 86.3582ZM295.599 143.805C297.664 143.93 301.732 144.619 304.673 145.307C307.614 145.995 311.932 147.372 314.373 148.373C316.751 149.374 320.693 151.565 323.134 153.254C325.512 154.944 329.204 158.135 331.331 160.326C333.397 162.516 336.4 166.271 337.965 168.649C339.529 171.089 341.532 174.531 342.47 176.346C343.346 178.16 344.097 179.787 344.097 179.913C344.097 180.1 342.032 178.411 339.529 176.095C336.588 173.404 333.271 171.152 330.017 169.587C327.264 168.273 322.633 166.583 319.692 165.833C316.188 164.956 311.557 164.331 306.238 164.143C299.855 163.893 297.226 164.018 294.035 164.831C291.782 165.457 288.841 166.458 287.464 167.084C286.087 167.71 283.709 169.462 282.145 170.964C280.643 172.466 278.703 175.219 277.827 177.097C276.888 179.162 276.2 182.165 276.012 184.606C275.825 187.234 276.075 190.113 276.763 192.741C277.326 194.994 278.578 198.123 279.454 199.625C280.393 201.189 282.082 203.692 283.334 205.194C284.586 206.634 287.402 209.074 289.654 210.513C291.907 212.015 295.099 213.767 296.851 214.518C298.54 215.207 303.359 216.521 307.489 217.397C311.619 218.273 316.688 219.587 318.753 220.276C320.818 221.027 324.448 222.654 326.888 223.905C329.642 225.344 332.896 227.848 335.712 230.601C338.152 233.104 340.718 236.296 342.846 240.926L341.156 243.93C340.218 245.557 338.027 248.874 336.275 251.252C334.46 253.692 330.643 257.885 327.764 260.576C324.886 263.267 320.255 266.959 317.502 268.774C314.748 270.588 310.493 273.029 308.115 274.281C305.674 275.47 301.044 277.472 297.79 278.786C294.535 280.1 288.152 282.103 283.709 283.229C279.204 284.356 273.009 285.732 269.942 286.233C266.813 286.796 260.368 287.547 255.549 287.923C248.979 288.423 244.786 288.423 238.653 287.923C234.147 287.485 228.515 286.734 226.137 286.233C223.697 285.732 219.754 284.794 217.377 284.105C214.936 283.48 210.055 281.602 206.425 280.038C202.796 278.411 197.852 275.845 195.474 274.281C193.034 272.716 190.03 270.651 188.716 269.65C186.651 268.085 186.4 267.522 186.4 265.207C186.338 263.705 186.901 260.701 187.589 258.448C188.278 256.258 189.717 253.067 190.718 251.44C191.782 249.812 193.972 247.184 195.599 245.557C197.226 243.993 201.669 240.864 205.487 238.611C209.241 236.358 213.935 233.354 215.812 231.915C217.689 230.413 220.818 227.722 222.696 225.845C224.573 224.03 227.076 221.089 228.265 219.337C229.454 217.647 231.269 214.393 232.333 212.14C234.022 208.511 234.21 207.447 234.273 202.128C234.273 196.934 234.022 195.745 232.52 192.616C231.582 190.613 229.454 187.61 227.827 185.858C225.887 183.73 223.822 182.291 221.757 181.54C220.005 180.914 216.938 180.226 214.873 179.975C212.808 179.725 208.741 179.85 205.8 180.226C202.858 180.664 197.977 181.79 194.974 182.791C191.97 183.792 187.777 185.482 185.587 186.609C183.459 187.672 180.017 189.675 177.952 191.114C175.887 192.491 172.258 195.495 169.942 197.747C167.564 200 165.061 202.816 164.31 204.005C163.559 205.257 162.871 205.945 162.746 205.57C162.621 205.257 163.121 202.691 163.872 199.938C164.623 197.184 166.125 192.991 167.251 190.551C168.315 188.173 170.756 183.918 172.633 181.164C174.448 178.411 178.077 174.03 180.706 171.465C183.334 168.836 187.276 165.52 189.529 164.018C191.782 162.453 195.412 160.513 197.664 159.575C199.917 158.636 203.985 157.384 206.738 156.759C210.618 155.945 213.309 155.757 218.628 156.008C223.321 156.258 227.326 156.884 231.144 157.948C234.21 158.886 239.592 161.014 243.034 162.704C246.475 164.456 249.792 165.895 250.355 165.895C250.981 165.833 251.857 165.082 252.358 164.143C252.796 163.204 254.861 160.701 256.863 158.636C258.866 156.508 262.37 153.567 264.623 152.065C266.876 150.563 270.067 148.749 271.82 147.998C273.509 147.184 276.638 146.12 278.703 145.495C280.768 144.869 284.586 144.18 287.151 143.93C289.717 143.68 293.534 143.617 295.599 143.805ZM283.271 224.531C282.896 225.47 281.957 227.66 281.206 229.349C280.455 231.102 278.578 233.855 277.076 235.545C275.449 237.297 272.758 239.362 270.568 240.426C267.752 241.802 265.562 242.366 261.807 242.616C258.052 242.929 255.862 242.741 253.046 241.928C250.981 241.302 247.915 240.113 246.288 239.299C244.661 238.486 241.594 236.108 239.404 234.043C237.276 231.978 235.274 230.288 235.024 230.288C234.773 230.288 234.022 230.601 233.334 230.914C232.458 231.352 232.082 232.165 232.082 233.605C232.082 235.294 232.771 236.296 235.962 239.362C238.215 241.552 241.657 243.993 243.972 245.119C246.225 246.246 249.855 247.56 252.107 248.123C254.36 248.624 257.552 249.062 259.304 249.062C260.994 249.062 264.122 248.811 266.188 248.436C268.253 248.06 271.757 246.809 273.947 245.745C276.325 244.556 279.266 242.366 281.206 240.301C283.021 238.423 285.399 235.044 286.463 232.791C287.464 230.601 288.528 227.91 288.778 226.846C289.029 225.595 288.841 224.656 288.152 223.905C287.589 223.279 286.4 222.779 285.587 222.779C284.46 222.779 283.772 223.279 283.271 224.531ZM111.682 271.903C113.246 273.655 115.875 277.034 117.502 279.412C119.129 281.853 121.131 285.107 121.882 286.609C122.633 288.173 123.071 289.612 122.758 289.8C122.508 289.988 121.194 290.801 117.564 292.866L115.061 287.86C113.684 285.107 111.682 280.351 110.681 277.222C109.617 274.155 108.803 270.964 108.803 270.213C108.866 268.961 109.241 269.212 111.682 271.903ZM128.578 274.093C129.454 274.969 131.394 277.347 132.896 279.412C134.335 281.477 136.588 284.919 137.84 287.109C139.091 289.237 140.092 291.302 140.092 291.615C140.092 291.99 139.216 291.865 138.215 291.302C137.151 290.801 135.962 290.363 135.524 290.426C135.086 290.426 134.147 289.8 133.397 288.986C132.708 288.236 131.394 286.17 130.518 284.418C129.642 282.729 128.515 279.787 127.952 277.848C127.389 275.97 126.951 274.03 126.888 273.467C126.888 272.841 127.389 272.966 128.578 274.093ZM106.238 290.614C106.613 290.801 108.365 293.242 113.497 300.939L111.619 309.199L110.18 305.883C109.367 304.068 108.178 301.064 107.552 299.124C106.863 297.247 106.175 294.493 105.987 292.929C105.674 291.052 105.8 290.301 106.238 290.614Z" fill="#FDDDA9" stroke="#FDDDA9" stroke-width="1.25156" stroke-miterlimit="100"/>
<path d="M261.181 224.218C251.669 226.22 245.85 221.714 244.285 215.769C244.285 205.444 250.293 202.503 258.052 201.376C268.691 199.812 274.01 203.567 275.261 210.137C276.513 216.708 270.693 222.215 261.181 224.218Z" fill="black" stroke="black" stroke-width="1.25156" stroke-miterlimit="100"/>
<path fill-rule="evenodd" clip-rule="evenodd" d="M124.26 38.1729C124.698 38.1729 159.617 42.6785 201.857 48.1854C244.16 53.6923 279.642 58.323 282.771 58.8237V66.4582C282.771 70.7135 283.209 76.9713 283.709 80.4131C284.147 83.855 284.836 87.9225 285.211 89.487C285.524 91.0514 285.775 92.3656 285.712 92.4282C285.649 92.5533 278.265 91.6146 253.046 88.0477L248.916 83.6046C246.663 81.1641 243.409 78.2229 241.719 77.0965C240.03 75.9701 237.589 74.7811 236.275 74.4682C234.773 74.0302 233.084 74.0927 231.457 74.4682C229.788 74.8854 228.453 75.7615 227.452 77.0965C226.638 78.2229 225.574 80.288 224.26 84.2304L173.885 76.5959C146.162 72.3406 123.321 68.8988 123.009 68.8362C122.758 68.8362 121.569 67.8975 120.318 66.7711C118.941 65.5195 117.752 63.6422 117.126 61.6397C116.563 59.8249 116.188 56.3831 116.188 53.5045C116.188 49.1866 116.5 47.9351 118.127 44.5558C119.191 42.4282 120.818 40.1128 121.757 39.4244C122.633 38.7361 123.759 38.1729 124.26 38.1729ZM338.778 64.4557C339.091 64.4557 340.656 65.0815 342.22 65.8324C344.473 66.8963 352.858 68.2104 425.762 77.9726L426.137 83.2918C426.388 86.1703 426.888 89.3618 427.264 90.4257C427.702 91.4269 428.14 94.681 428.203 97.6222C428.328 101.252 428.766 103.692 429.579 105.382C430.205 106.759 431.394 108.198 432.145 108.699C432.958 109.137 434.147 109.387 434.836 109.199C435.524 109.011 436.713 108.135 438.966 105.444L439.717 109.199C440.092 111.264 440.593 113.58 440.781 114.331C441.031 115.394 440.843 115.77 439.967 115.77C439.404 115.707 411.306 111.577 316.187 97.3093L319.504 93.2417C321.319 90.9889 323.822 87.3593 325.011 85.1065C326.137 82.8537 327.702 78.9113 328.39 76.3456C329.266 73.0915 330.142 71.3393 331.081 70.7135C331.895 70.2129 333.772 68.5859 335.336 67.1466C336.901 65.7073 338.403 64.4557 338.778 64.4557ZM295.474 84.293C295.787 84.4182 296.037 85.2943 295.975 86.2329C295.912 87.1716 296.288 89.4244 297.477 94.5558L295.599 94.1804C294.535 93.9926 293.221 93.8675 292.596 93.8675C291.657 93.8675 291.719 93.4294 293.221 88.9238C294.16 86.2329 295.161 84.1053 295.474 84.293ZM483.084 85.1065C483.772 85.1065 484.773 85.3568 485.336 85.6697C485.962 86.0452 500.418 88.0477 517.439 90.1128C534.46 92.2404 548.478 94.1804 548.54 94.4307C548.603 94.6184 549.229 95.5571 549.98 96.4957C550.668 97.497 553.86 99.5621 556.989 101.189C560.18 102.879 564.31 105.57 566.125 107.322C567.94 109.011 570.005 111.577 570.693 112.954C571.319 114.331 572.132 117.147 572.508 119.212C573.071 122.09 573.009 124.406 572.383 128.849C571.945 132.04 571.382 134.794 571.069 134.919C570.818 135.044 544.097 131.227 511.619 126.408C479.204 121.59 452.295 117.647 451.857 117.647C451.356 117.647 451.669 116.396 454.548 109.95L454.986 111.953C455.299 113.204 455.987 114.018 456.863 114.268C457.802 114.518 459.116 114.143 460.743 113.204C462.12 112.391 464.185 110.576 465.437 109.199C466.626 107.822 467.752 106.133 467.877 105.444C468.002 104.756 469.191 103.317 470.568 102.316C471.945 101.252 474.072 98.9989 475.261 97.3093C476.388 95.5571 477.952 92.6159 478.703 90.7386C479.392 88.8612 480.455 86.7961 480.956 86.1703C481.519 85.6071 482.458 85.1065 483.084 85.1065ZM309.366 88.1728L309.679 92.1153C309.867 94.3055 309.992 96.1203 309.992 96.2454C309.992 96.308 309.304 96.2454 306.863 95.6822L308.115 91.9275L309.366 88.1728ZM608.428 100.751C608.803 100.751 612.746 101.189 617.251 101.752C622.883 102.441 625.762 103.066 626.513 103.755C627.139 104.318 628.14 106.195 628.828 107.948C629.454 109.637 630.142 113.016 630.393 115.457C630.643 118.398 630.518 121.277 629.892 124.218C629.392 126.596 628.39 129.975 627.639 131.727C626.888 133.417 625.387 136.295 624.26 138.11C623.134 139.925 622.132 141.427 621.945 141.427C621.757 141.427 621.131 138.924 620.505 135.92C619.88 132.916 618.503 127.535 617.502 123.905C616.438 120.275 614.686 115.081 613.622 112.328C612.495 109.575 610.743 105.82 609.679 104.005C608.616 102.19 608.052 100.751 608.428 100.751Z" fill="#A75A07" stroke="#A75A07" stroke-width="1.25156" stroke-miterlimit="100"/>
<path fill-rule="evenodd" clip-rule="evenodd" d="M307.802 32.6034C309.679 32.5408 313.497 33.104 316.25 33.7924C319.004 34.5433 323.447 36.2955 326.2 37.7348C328.891 39.1741 333.209 42.0527 335.9 44.1804C338.528 46.308 342.846 50.3756 345.537 53.2542C348.29 56.1328 351.106 59.3243 353.171 62.1403L350.042 61.6397C348.29 61.3894 346.601 60.9513 346.288 60.701C345.912 60.4507 344.41 59.7623 342.846 59.1366C340.969 58.4482 339.216 58.1979 337.652 58.4482C336.275 58.6985 334.398 59.6998 330.643 63.079L330.205 57.0715C329.892 52.6284 329.329 50.2504 328.328 48.2479C327.514 46.6835 326.075 44.8687 325.136 44.1804C323.947 43.3043 322.383 42.8662 320.318 42.8662C318.065 42.8662 316.938 43.2417 315.812 44.2429C314.373 45.5571 314.373 45.5571 312.808 44.3681C311.87 43.6172 310.305 43.1165 308.866 43.1791C307.614 43.1791 305.8 43.6172 304.798 44.1178C303.171 44.9313 303.046 44.9313 301.669 43.1791C300.918 42.1153 299.229 40.8637 297.915 40.3005C296.663 39.7999 294.911 39.487 294.035 39.6747C293.159 39.8625 291.719 40.6134 290.718 41.3018C289.78 41.9901 289.029 42.3656 289.029 42.0527C289.029 41.8024 289.967 40.4882 291.031 39.1741C292.158 37.86 294.223 36.1704 295.599 35.482C296.976 34.7936 299.479 33.855 301.231 33.4169C302.921 32.9789 305.925 32.6034 307.802 32.6034ZM454.548 66.2079C457.301 66.3331 461.369 66.8963 463.622 67.3969C465.875 67.8975 469.817 69.1491 472.383 70.1503C474.949 71.2142 479.016 73.2792 481.457 74.7811C483.835 76.2204 486.15 77.8474 486.588 78.2855C487.151 79.0364 486.651 79.1616 483.772 79.2242C481.457 79.2242 479.454 79.6622 478.077 80.4757C476.951 81.1015 475.449 82.666 474.823 83.855C474.198 85.0439 473.259 87.2968 472.696 88.8612C472.195 90.4257 471.194 92.3656 469.254 94.8061V91.3643C469.254 89.487 468.753 86.5458 468.19 84.8562C467.564 83.1666 466.313 81.1015 465.311 80.288C464.31 79.4119 462.808 78.8487 461.557 78.8487C460.493 78.8487 458.991 79.2867 458.303 79.7874C457.176 80.6009 456.926 80.5383 455.8 79.4745C455.111 78.7861 453.672 78.0352 452.671 77.8474C451.482 77.6597 449.98 77.9726 446.288 79.7874L445.286 78.0352C444.661 77.0965 443.221 75.9075 442.032 75.4069C440.843 74.9063 439.216 74.656 438.403 74.8437C437.652 75.0314 435.962 76.0327 434.648 77.0339C432.52 78.7235 432.333 78.7235 432.333 77.5971C432.333 76.9088 432.896 75.2817 433.522 73.9676C434.148 72.716 435.399 71.0264 436.213 70.2755C436.964 69.5245 438.778 68.3981 440.155 67.8349C441.532 67.2717 444.223 66.5834 446.1 66.3331C447.977 66.0827 451.795 66.0202 454.548 66.2079ZM234.398 80.3506C234.836 80.5383 235.462 80.726 235.837 80.726C236.15 80.726 238.153 82.1028 240.218 83.855C242.283 85.5446 245.224 88.7361 246.726 90.8637C248.29 93.054 250.48 96.9338 251.732 99.4995C252.921 102.065 254.611 106.571 255.487 109.512C256.3 112.453 257.364 115.081 257.802 115.394C258.303 115.707 259.429 115.77 260.368 115.52C261.369 115.332 262.245 114.643 262.433 113.893C262.683 112.954 263.246 112.641 264.936 112.641C266.125 112.641 271.006 113.329 275.699 114.205C280.455 115.081 288.153 117.084 292.783 118.648C297.414 120.213 304.047 122.779 307.489 124.468C310.931 126.095 315.687 128.661 318.127 130.163C320.505 131.602 324.636 134.481 327.201 136.421C329.767 138.361 334.398 142.678 337.527 145.87C340.593 149.124 344.848 154.318 346.851 157.384C348.916 160.513 351.857 165.832 353.359 169.274C354.861 172.716 356.926 178.598 357.865 182.416C358.866 186.17 359.93 191.552 360.305 194.306C360.743 197.059 361.056 203.692 361.056 209.011C361.056 214.331 360.618 222.09 360.055 226.22C359.554 230.351 358.678 235.857 358.115 238.423C357.552 240.989 356.238 245.494 355.236 248.436C354.173 251.377 352.483 255.444 351.482 257.51C350.418 259.575 348.415 263.079 346.913 265.332C345.474 267.585 342.783 271.152 340.906 273.279C339.029 275.344 335.775 278.598 333.584 280.476C330.205 283.292 329.642 284.043 329.83 285.607C329.955 286.608 330.518 287.735 331.081 288.11C331.957 288.673 332.708 288.486 334.523 287.547C335.837 286.859 339.279 283.918 342.283 280.976C345.224 278.035 349.166 273.404 350.981 270.651C352.796 267.897 355.549 263.267 357.051 260.326C358.49 257.384 359.742 254.631 359.742 254.193C359.742 253.817 361.056 252.879 362.683 252.128C364.373 251.439 368.065 250.188 371.006 249.374C373.947 248.561 379.704 247.372 383.835 246.809C389.529 246.058 393.972 245.87 401.982 246.12C407.802 246.308 415.124 246.934 418.253 247.434C421.319 247.935 427.264 249.249 431.394 250.313C435.524 251.314 441.97 253.379 445.787 254.756C449.542 256.195 455.362 258.573 458.616 260.138C461.87 261.64 467.377 264.769 470.818 267.084C474.26 269.337 479.392 273.53 482.208 276.408C485.086 279.287 487.402 281.978 487.402 282.353C487.402 282.791 485.837 284.981 483.897 287.234C481.957 289.487 478.328 293.993 475.887 297.247C473.447 300.501 470.067 305.57 468.378 308.511C466.688 311.452 464.748 315.081 464.06 316.646C463.434 318.21 462.183 321.402 461.369 323.842C460.556 326.22 459.867 328.974 459.867 329.913C459.867 331.101 460.305 331.915 461.244 332.353C462.308 332.854 463.059 332.854 464.06 332.353C465.124 331.852 465.937 330.225 467.126 326.471C468.065 323.655 469.942 319.086 471.319 316.333C472.696 313.58 475.387 308.949 477.389 306.008C479.329 303.066 482.771 298.436 484.961 295.682C487.151 292.929 496.663 282.916 506.113 273.467C515.562 264.018 525.512 253.442 528.265 250C531.019 246.558 535.274 240.613 537.777 236.859C540.218 233.041 543.722 227.409 545.474 224.343C547.226 221.214 550.856 214.08 553.609 208.386C556.363 202.691 559.992 194.368 561.745 189.925C563.497 185.419 565.937 178.849 567.189 175.219C568.44 171.59 570.693 164.268 572.258 158.949C573.76 153.63 575.762 145.745 576.576 141.427C577.452 137.109 578.39 131.039 578.703 127.973C579.016 124.593 579.016 120.714 578.703 118.273C578.328 116.02 577.327 112.516 576.388 110.513C575.199 107.948 573.447 105.632 570.631 103.004C568.065 100.626 564.31 98.0602 554.673 93.054L556.863 92.303C558.052 91.865 561.306 91.1766 564.06 90.7386C567.189 90.2379 571.632 90.0502 575.95 90.3005C580.643 90.4882 584.022 91.0515 586.588 91.9901C588.653 92.6785 591.469 93.93 592.846 94.7436C594.223 95.5571 596.976 97.9976 599.041 100.188C601.669 103.066 603.672 106.133 606.05 111.076C607.865 114.831 610.243 121.026 611.306 124.844C612.37 128.598 614.06 135.67 615.061 140.488C616.062 145.307 617.564 154.193 618.44 160.2C619.317 166.208 620.443 176.471 621.069 183.041C621.694 190.426 622.07 201.502 622.133 212.14C622.133 221.59 621.82 233.292 621.382 238.11C620.944 242.929 619.942 251.815 619.066 257.822C618.19 263.83 616.813 272.153 615.937 276.283C615.061 280.413 613.684 286.483 612.808 289.737C611.932 292.991 610.118 299.312 608.741 303.817C607.301 308.26 604.36 316.583 602.107 322.278C599.855 327.973 595.349 337.923 592.032 344.493C588.716 351.001 583.897 359.762 581.269 363.892C578.703 368.023 574.636 374.218 572.195 377.66C569.817 381.101 565.624 386.734 562.871 390.175C560.117 393.617 554.736 399.938 550.856 404.255C546.976 408.573 541.219 414.643 537.965 417.772C534.773 420.901 529.454 425.845 526.2 428.723C522.946 431.665 517.439 436.295 513.997 439.049C510.556 441.74 504.36 446.433 500.23 449.374C496.1 452.315 491.469 455.444 489.905 456.321C488.34 457.197 484.398 459.074 481.144 460.451C477.89 461.827 472.633 463.83 469.567 464.956C466.438 466.02 461.244 467.585 457.99 468.398C454.736 469.212 448.916 470.463 445.161 471.214C441.344 471.902 434.335 472.904 429.517 473.404C424.698 473.968 415.937 474.343 410.117 474.343C404.235 474.343 395.537 473.905 390.718 473.404C385.9 472.904 378.828 471.902 375.074 471.214C371.256 470.463 363.935 468.774 358.803 467.397C353.609 465.958 346.037 463.58 341.907 462.015C337.777 460.451 330.143 457.134 325.011 454.693C319.817 452.19 312.808 448.561 309.367 446.558C305.925 444.493 299.604 440.488 295.286 437.547C290.969 434.606 284.961 430.225 281.832 427.785C278.766 425.344 273.634 421.089 264.873 413.329L266.626 410.513C267.627 408.949 269.629 405.319 271.131 402.378C272.633 399.437 274.761 394.368 275.825 391.114C276.951 387.86 278.265 382.603 278.828 379.537C279.517 375.469 279.704 371.464 279.454 365.144C279.266 358.949 278.828 355.257 277.952 352.628C276.888 349.249 276.576 348.874 274.949 348.686C273.76 348.561 272.696 348.874 272.132 349.499C271.319 350.501 271.319 351.189 272.383 356.008C273.134 359.449 273.509 363.767 273.509 367.96C273.447 371.59 273.009 376.658 272.508 379.224C272.07 381.79 270.881 386.17 270.005 388.924C269.066 391.677 266.938 396.746 265.249 400.188C263.497 403.63 260.305 408.824 258.115 411.765C255.925 414.706 251.607 419.462 248.603 422.403C245.537 425.344 239.78 429.913 235.837 432.541C231.895 435.169 227.076 438.048 225.199 438.861C223.321 439.675 220.318 440.676 218.628 441.114C216.876 441.552 212.808 441.865 209.554 441.865C205.236 441.865 202.045 441.427 197.79 440.238C194.661 439.362 189.592 437.484 186.525 435.983C183.522 434.481 179.392 432.165 177.326 430.851C175.261 429.537 171.882 427.222 169.817 425.657C167.752 424.093 164.248 421.214 162.057 419.337C159.867 417.397 155.8 413.267 153.046 410.2C150.293 407.071 145.912 401.314 143.347 397.372C140.718 393.429 136.275 385.67 133.459 380.163C130.643 374.656 127.326 367.585 126.137 364.518C124.886 361.389 123.009 356.07 121.945 352.628C120.881 349.187 119.442 343.555 118.691 340.113C117.564 334.919 117.314 331.852 117.314 322.278C117.314 312.265 117.502 310.013 118.753 305.695C119.504 302.941 120.756 299.75 121.507 298.623C122.383 297.309 123.76 296.371 125.387 295.87C127.326 295.307 128.703 295.307 131.331 295.87C133.209 296.245 137.276 297.81 140.405 299.374C143.472 300.876 149.417 304.568 153.547 307.509C157.677 310.451 164.873 316.145 169.504 320.213C174.135 324.28 182.583 332.29 188.278 337.985C193.972 343.68 202.42 352.628 207.051 357.885C211.682 363.079 216 367.522 216.563 367.647C217.189 367.835 218.253 367.647 218.941 367.334C219.755 366.959 220.193 366.083 220.193 364.956C220.193 363.642 218.315 361.139 211.745 353.692C203.922 344.931 203.359 344.055 203.797 342.428C204.11 341.489 205.424 338.611 206.801 336.045C208.428 332.916 210.868 329.725 214.248 326.283C217.001 323.53 221.632 319.65 224.573 317.71C227.514 315.832 231.394 313.642 233.146 312.954C235.274 312.14 237.902 311.64 240.343 311.64C242.533 311.64 247.352 311.327 251.169 311.014C254.923 310.638 260.994 309.95 264.623 309.387C269.066 308.698 271.569 307.948 272.445 307.197C273.509 306.195 273.572 305.757 273.071 304.318C272.508 302.879 272.07 302.566 270.255 302.628C269.066 302.628 265.124 303.129 261.494 303.755C257.865 304.318 249.98 304.944 243.972 305.194C235.712 305.444 230.956 305.257 224.573 304.506C219.942 303.943 213.997 303.004 211.432 302.503C208.866 302.003 203.484 300.501 199.542 299.187C195.599 297.872 189.529 295.369 186.087 293.617C182.646 291.928 177.827 289.111 175.449 287.422C173.009 285.67 169.254 282.666 167.064 280.601C164.873 278.598 161.306 274.531 159.116 271.59C156.863 268.648 153.985 264.143 152.671 261.577C151.357 259.011 149.542 254.881 148.666 252.503C147.79 250.063 146.538 245.432 145.85 242.178C145.099 238.924 144.223 232.29 143.785 227.472C143.284 220.901 143.284 216.896 143.785 211.515C144.16 207.572 145.036 201.752 145.724 198.686C146.35 195.557 147.602 191.051 148.415 188.673C149.229 186.233 150.731 182.478 151.669 180.225C152.608 177.973 154.861 173.592 156.676 170.526C158.49 167.397 161.745 162.516 163.935 159.575C166.125 156.696 170.443 151.752 173.572 148.623C176.638 145.495 181.895 140.864 185.149 138.361C188.403 135.857 194.348 131.852 198.29 129.537C202.233 127.159 207.865 124.218 210.806 122.904C214.623 121.214 216.876 120.588 218.753 120.651C220.318 120.714 221.694 120.463 222.07 119.963C222.445 119.587 222.633 118.398 222.571 117.397C222.445 116.396 221.945 115.332 221.444 115.081C220.944 114.769 218.816 113.893 216.751 113.142C214.31 112.265 211.932 110.764 210.055 108.949C207.865 106.821 207.051 105.507 206.926 104.13C206.863 103.066 207.239 101.815 207.74 101.439C208.303 100.939 209.679 100.814 211.745 101.064C213.434 101.314 216.688 102.19 218.941 103.004C221.194 103.88 225.387 105.882 228.265 107.51C232.458 109.887 233.96 111.139 236.15 114.205C237.652 116.27 239.78 118.899 240.969 120.025C242.533 121.59 243.472 122.028 244.911 121.903C246.225 121.777 246.913 121.277 247.414 120.088C247.977 118.586 247.727 118.085 244.974 115.081C243.284 113.204 240.405 109.449 238.591 106.696C236.776 103.943 234.398 99.4369 233.334 96.6835C232.208 93.93 231.144 90.2379 231.019 88.4232C230.831 86.671 230.831 84.4807 231.081 83.6046C231.269 82.7286 231.895 81.5396 232.52 80.9764C233.084 80.4757 233.897 80.1628 234.398 80.3506ZM317.627 103.88C317.94 103.88 329.517 105.57 343.472 107.635C357.427 109.7 368.941 111.389 369.129 111.389C369.316 111.389 370.881 114.143 372.696 117.459C374.51 120.839 377.452 127.409 379.329 132.04C381.206 136.671 383.459 142.991 384.335 146.12C385.274 149.187 386.4 153.567 386.901 155.82C387.464 158.073 388.278 162.704 388.841 166.145C389.404 169.587 390.03 177.597 390.218 183.98C390.468 191.364 390.28 198.185 389.842 202.754C389.404 206.696 388.653 212.328 388.153 215.269C387.652 218.21 386.526 223.404 385.649 226.846C384.836 230.288 383.584 234.794 381.644 240.613L376.2 241.677C373.134 242.303 369.004 243.304 366.939 243.993C364.873 244.681 363.121 245.182 363.059 245.119C362.996 245.056 363.309 243.429 363.81 241.552C364.248 239.675 365.186 234.856 365.812 230.914C366.688 225.469 366.939 220.15 366.939 209.011C366.939 196.371 366.751 193.367 365.562 187.422C364.811 183.605 363.121 177.597 361.87 173.968C360.618 170.338 358.616 165.394 357.427 163.016C356.175 160.576 353.922 156.633 352.358 154.255C350.856 151.815 347.852 147.81 345.724 145.244C343.597 142.741 339.654 138.673 336.901 136.233C334.148 133.792 330.581 130.851 328.891 129.725C326.888 128.285 325.95 127.222 325.95 126.22C325.95 125.469 325.387 122.716 324.636 120.15C323.947 117.585 322.32 113.392 321.069 110.826C319.817 108.323 318.378 105.945 317.94 105.507C317.502 105.132 317.126 104.631 317.189 104.318C317.189 104.068 317.377 103.88 317.627 103.88ZM488.465 129.287C490.092 129.537 499.354 130.914 508.991 132.353C525.574 134.856 526.576 135.107 527.765 136.608C528.453 137.484 530.768 140.989 532.833 144.368C534.961 147.747 538.528 154.13 540.781 158.636C542.971 163.079 545.85 169.525 547.101 172.841C548.353 176.22 550.042 181.852 550.919 185.357C551.795 188.924 552.483 192.804 552.483 193.993C552.483 195.369 550.981 199.312 548.541 204.631C546.35 209.262 542.658 216.458 540.28 220.588C537.965 224.719 533.835 231.352 531.144 235.294C528.453 239.237 524.448 244.744 522.258 247.497C520.067 250.25 512.433 258.135 492.283 277.535L486.525 271.902C483.397 268.774 478.578 264.706 475.825 262.829C473.071 260.951 467.564 257.697 456.238 251.877L460.305 246.871C462.495 244.118 466.313 238.924 468.753 235.294C471.131 231.665 475.011 224.906 477.327 220.275C479.642 215.645 482.833 207.885 484.398 203.066C486.025 198.248 487.84 191.364 488.528 187.735C489.279 184.105 490.155 177.66 490.531 173.342C490.969 168.899 491.094 162.516 490.843 158.636C490.656 154.819 490.03 149.061 489.529 145.807C489.029 142.553 488.09 137.86 487.402 135.482C486.776 133.041 486.025 130.601 485.837 129.975C485.462 128.911 485.649 128.849 488.465 129.287ZM279.329 139.487C276.888 140.113 272.821 141.552 270.255 142.616C267.689 143.68 263.747 145.807 261.494 147.372C259.241 148.936 256.3 151.314 254.923 152.628C253.547 153.88 251.607 155.945 250.668 157.134L248.916 159.262C239.967 155.006 234.711 153.066 231.457 152.253C227.89 151.377 222.758 150.563 218.628 150.376C213.434 150.125 210.43 150.25 206.425 151.064C203.484 151.69 198.853 153.066 196.1 154.193C193.347 155.319 189.529 157.197 187.652 158.386C185.775 159.637 182.27 162.265 179.892 164.331C177.577 166.333 174.135 169.837 172.32 172.09C170.443 174.343 167.502 178.536 165.75 181.477C163.997 184.418 161.682 189.049 160.681 191.802C159.617 194.556 158.178 199.187 157.552 202.128C156.738 205.82 156.363 210.013 156.363 215.707C156.363 220.338 156.738 226.033 157.239 228.536C157.739 231.039 158.866 235.357 159.805 238.11C160.743 240.864 162.871 245.807 164.561 249.061C166.25 252.316 169.004 256.821 170.693 259.074C172.383 261.327 176.325 265.582 179.454 268.586C182.583 271.652 187.464 275.595 190.28 277.472C193.159 279.287 197.727 281.978 200.48 283.354C203.234 284.731 207.614 286.608 210.18 287.484C212.746 288.423 217.001 289.737 219.567 290.363C222.132 290.989 227.201 291.99 230.831 292.491C234.586 293.054 241.657 293.492 247.414 293.492C252.921 293.492 260.681 293.117 264.623 292.616C268.566 292.115 275.074 290.989 279.016 290.113C282.959 289.237 289.467 287.484 293.409 286.233C297.352 284.981 304.235 282.228 308.741 280.038C313.184 277.91 319.379 274.343 322.508 272.153C325.574 269.963 330.643 265.582 333.772 262.516C336.901 259.387 341.031 254.506 342.971 251.565C344.911 248.623 347.164 244.806 348.04 243.117C348.853 241.364 350.48 237.422 351.544 234.356C352.671 231.227 353.985 226.158 354.548 223.091C355.174 219.65 355.549 214.268 355.549 209.324C355.487 204.631 355.049 198.686 354.423 195.244C353.86 191.99 352.546 186.734 351.482 183.667C350.48 180.538 348.29 175.469 346.726 172.403C345.099 169.274 342.533 165.081 341.031 163.016C339.467 160.951 336.838 157.76 335.086 155.945C333.334 154.068 330.08 151.189 327.827 149.562C325.574 147.872 321.632 145.557 319.066 144.306C316.5 143.117 311.682 141.364 308.428 140.488C303.484 139.049 300.856 138.736 293.096 138.548C285.336 138.361 282.959 138.486 279.329 139.487Z" fill="#C88C59" stroke="#C88C59" stroke-width="1.25156" stroke-miterlimit="100"/>
<path d="M305.549 26.7211C319.567 25.6573 332.333 33.1666 341.845 41.3644C351.607 49.6873 358.553 59.1366 360.806 62.3907C361.015 62.6827 361.161 63.0165 361.244 63.3919L427.076 72.2155H427.201C427.327 72.2572 427.452 72.2989 427.577 72.3406C428.703 69.5872 430.518 67.0215 433.209 64.9564C436.463 62.4533 440.781 60.8262 446.475 60.263H447.101C460.618 59.074 472.258 62.7662 481.019 67.5221C489.592 72.1529 495.599 77.9101 498.228 81.477L498.415 81.7274L551.231 88.3606C552.358 87.6097 553.735 87.0465 555.049 86.6084C560.868 84.6685 569.88 84.0427 573.447 84.0427H574.135C581.394 84.1679 587.589 85.482 593.034 88.1103C596.225 89.6748 599.041 91.6773 601.607 94.1178L627.577 96.8713L627.765 96.9339C628.265 96.9964 628.766 97.2467 629.141 97.5596C633.71 101.627 636.713 109.825 636.463 119.087C636.213 128.536 632.646 139.424 623.384 149.187C623.217 149.354 623.03 149.5 622.821 149.625C633.835 214.706 642.283 358.761 497.915 458.448L496.163 459.637L495.975 459.762C456.488 482.478 355.111 505.069 261.056 417.898C253.422 427.472 243.221 436.296 230.08 443.117L229.016 443.68C212.558 452.065 194.098 447.497 178.39 438.548C162.808 429.787 149.229 416.396 141.407 405.382L141.031 404.819C130.706 389.988 121.382 371.84 115.875 353.379C112.683 342.428 110.743 331.352 110.931 320.714L110.618 320.213C108.678 316.959 105.049 309.762 102.483 302.754C101.169 298.999 100.042 295.182 99.7922 291.865C99.5418 288.861 99.9173 284.919 103.234 283.104L103.422 282.979C104.298 282.603 105.299 282.666 106.113 283.167C106.279 283.25 106.425 283.354 106.551 283.48C106.175 282.478 105.8 281.498 105.424 280.538C104.11 276.784 102.984 272.966 102.733 269.65C102.483 266.646 102.858 262.704 106.175 260.889L106.425 260.764C107.364 260.326 108.553 260.513 109.367 261.202C113.559 264.769 117.627 269.274 121.069 273.905C121.027 273.446 121.027 272.987 121.069 272.528C121.069 269.775 121.945 266.583 124.949 264.956L125.199 264.831C126.138 264.393 127.327 264.581 128.14 265.269C137.214 273.029 145.099 285.92 147.852 294.681L147.977 295.057L148.04 295.182C148.123 295.641 148.123 296.079 148.04 296.496C152.483 299.187 157.176 302.441 161.932 306.133C174.01 315.52 186.964 327.785 198.541 339.8C201.106 331.727 207.051 324.281 213.622 318.523C217.126 315.457 220.881 312.766 224.573 310.576C211.682 309.262 198.728 306.195 186.901 300.876C173.447 294.806 161.369 285.732 152.546 272.966C143.785 260.451 138.34 244.368 137.589 224.343V223.342C135.9 162.453 182.02 128.536 210.368 116.709C208.491 115.645 206.676 114.331 205.174 112.829C202.295 109.888 200.293 105.82 201.482 100.876L201.607 100.563C202.045 99.0615 202.858 97.81 203.985 96.8087C205.236 95.8075 206.676 95.3068 208.115 95.0565C210.994 94.681 214.248 95.2442 217.377 96.1829C221.069 97.3093 224.949 99.0615 228.453 100.876C227.327 98.3106 226.325 95.7449 225.7 93.3043L225.574 92.8663C225.366 92.0319 225.199 91.1975 225.074 90.3631L121.82 74.656C121.695 74.6143 121.549 74.5726 121.382 74.5309L121.256 74.4683C118.816 73.5296 115.937 71.7774 113.685 68.3982C111.557 65.0815 110.118 60.4508 110.055 54.0052V53.3794C110.055 47.3093 112.12 42.1779 114.623 38.5484C115.875 36.7336 117.314 35.2317 118.753 34.1053C120.068 33.1041 121.695 32.228 123.322 32.1028H123.447C123.614 32.1028 123.76 32.1237 123.885 32.1654L281.957 52.6911C281.269 48.4983 281.644 43.6798 283.772 39.2993C286.901 32.8538 293.534 27.8475 304.861 26.7837L305.549 26.7211ZM233.647 79.9752C232.833 80.0377 232.27 80.3506 231.707 81.2267C231.144 82.1654 230.643 83.6673 230.518 85.6072C230.393 87.4846 230.581 89.5496 231.081 91.4896L231.206 91.865C232.208 95.8075 234.398 100.563 237.151 105.132C239.905 109.7 243.096 113.83 246.225 116.709L246.538 117.021L246.601 117.084C247.665 118.148 247.727 119.9 246.726 120.964C245.662 122.09 243.972 122.215 242.846 121.277L242.721 121.152L242.345 120.839C239.279 117.96 236.213 114.143 233.522 110.013C233.23 109.929 232.917 109.804 232.583 109.637L232.458 109.575L231.644 109.074C227.264 106.383 221.131 103.192 215.75 101.565C212.871 100.689 210.556 100.376 208.991 100.626C208.303 100.751 207.865 101.001 207.614 101.189C207.427 101.314 207.176 101.565 207.051 102.065L206.989 102.253C206.363 104.694 207.239 106.821 209.179 108.824C211.244 110.889 214.248 112.578 217.189 113.705L217.564 113.83C217.94 113.997 218.315 114.122 218.691 114.205L219.191 114.393C219.525 114.518 219.838 114.623 220.13 114.706L220.568 114.831H220.756C222.133 115.269 223.009 116.771 222.633 118.21C222.258 119.712 220.818 120.588 219.317 120.276H219.191L218.628 120.088C218.378 120.046 218.107 119.963 217.815 119.837C191.594 128.911 141.532 161.64 143.221 223.217L143.284 224.155C143.91 243.242 149.166 258.198 157.176 269.775C165.374 281.54 176.576 289.988 189.279 295.745C203.797 302.316 220.255 305.319 236.088 305.632C236.129 305.632 236.15 305.632 236.15 305.632C236.651 305.57 237.151 305.57 237.589 305.695C248.916 305.82 259.93 304.694 269.692 302.503H269.817C271.256 302.253 272.696 303.192 273.009 304.631C273.384 306.195 272.383 307.697 270.881 308.01L269.755 308.261C259.742 310.388 248.415 311.515 236.776 311.327C231.457 312.766 224.01 316.896 217.314 322.779C210.368 328.849 204.798 336.421 203.234 343.993C203.192 344.201 203.13 344.389 203.046 344.556C208.553 350.438 213.685 356.195 218.128 361.327L219.504 362.954L219.629 363.079C220.506 364.268 220.318 365.958 219.191 366.959C218.065 367.898 216.313 367.835 215.312 366.709L215.249 366.583L213.81 365.019C199.354 348.123 177.765 325.532 158.491 310.576C148.478 302.816 139.342 297.309 132.333 295.62C128.828 294.744 126.2 294.869 124.26 295.745C122.633 296.496 121.194 297.873 120.068 300.438C120.13 301.189 119.88 301.878 119.379 302.441C114.748 316.959 116.125 334.293 121.319 351.752C126.576 369.525 135.649 387.172 145.725 401.627L146.037 402.128C153.422 412.516 166.375 425.282 181.144 433.667C196.225 442.178 212.496 445.745 226.45 438.674L227.514 438.11C240.593 431.289 250.543 422.466 257.802 412.891C257.927 412.391 258.178 411.953 258.553 411.577C258.72 411.369 258.929 411.202 259.179 411.077C274.198 390.175 276.701 366.271 271.695 352.316C271.194 350.876 271.945 349.249 273.447 348.686C274.886 348.185 276.513 348.936 277.014 350.438C282.583 366.02 279.83 391.239 264.498 413.329C356.363 498.936 455.174 476.721 493.096 454.944C637.902 356.07 628.077 212.266 616.939 148.623L616.688 147.122C613.121 127.284 608.929 112.891 602.295 103.442C599.041 98.8112 595.161 95.432 590.593 93.1166C586.088 90.9264 580.706 89.7374 574.135 89.6748H573.447C570.13 89.6748 561.807 90.3006 556.863 91.9276C555.8 92.2405 555.111 92.616 554.611 92.8663C554.694 92.9497 554.819 93.054 554.986 93.1792C555.8 93.8675 557.239 94.8062 559.617 95.87L560.18 96.1203C565.937 98.8738 570.13 102.065 573.134 105.632C576.2 109.324 577.765 113.392 578.453 117.522C579.705 125.094 577.827 133.292 576.513 140.676L576.263 142.115C576.263 142.157 576.242 142.178 576.2 142.178C573.634 154.881 567.815 175.157 558.741 196.558V196.871V196.996C558.741 197.935 558.303 198.811 557.552 199.312C557.26 200.021 556.947 200.751 556.613 201.502C546.413 224.281 532.395 248.06 514.248 264.956L513.434 265.707C505.925 272.528 499.667 278.724 494.41 284.356C494.223 284.981 493.722 285.545 493.096 285.858C493.055 285.899 493.013 285.92 492.971 285.92C483.334 296.433 477.327 304.881 473.447 311.452C470.443 316.583 468.753 320.651 467.627 323.717C467.126 325.282 466.688 326.596 466.375 327.722C466 328.849 465.687 329.913 465.249 330.789L465.186 330.976C464.561 332.291 462.934 332.854 461.557 332.228C460.118 331.602 459.492 329.975 460.118 328.536L460.243 328.348C460.43 327.785 460.618 327.097 460.994 326.095C461.307 324.969 461.745 323.53 462.37 321.84C463.559 318.461 465.374 314.08 468.628 308.636C472.571 301.815 478.641 293.304 488.215 282.791C484.46 277.034 472.633 263.079 441.344 252.816L439.654 252.253C401.294 240.113 371.194 247.372 359.992 253.067C359.2 255.027 358.345 257.009 357.427 259.011C352.608 269.087 345.161 279.787 334.148 287.547C332.896 288.423 331.144 288.11 330.205 286.859C329.329 285.607 329.642 283.855 330.894 282.916C340.906 275.908 347.79 266.083 352.295 256.571C353.213 254.652 354.027 252.754 354.736 250.876C354.798 250.376 354.986 249.875 355.299 249.437C357.802 242.679 359.054 236.671 359.492 232.729V232.541C367.439 186.045 352.233 156.508 330.268 138.235C309.429 120.901 282.333 113.517 262.308 111.953L262.37 112.328L262.433 112.453C262.621 113.893 261.682 115.332 260.18 115.582C258.678 115.895 257.239 114.956 256.926 113.517L256.863 113.392L256.676 112.516C256.509 111.765 256.321 110.972 256.113 110.138L255.987 109.637C253.547 100.876 248.103 89.1742 239.342 82.6034L238.904 82.2906C236.275 80.4132 234.586 79.9752 233.647 79.9752ZM105.424 289.55C105.362 289.988 105.362 290.613 105.424 291.427C105.612 293.93 106.551 297.247 107.802 300.814C108.991 304.068 110.43 307.384 111.807 310.2C112.308 306.988 113.038 303.859 113.997 300.814C112.934 299.312 112.057 298.06 111.307 296.871C110.305 295.369 109.492 294.118 108.741 293.054C107.74 291.74 106.738 290.613 105.424 289.55ZM108.303 267.835C108.303 268.21 108.324 268.669 108.365 269.212C108.553 271.715 109.492 275.032 110.743 278.598C112.871 284.418 115.812 290.363 117.69 293.805C118.899 292.428 120.318 291.364 121.945 290.613C122.571 290.321 123.176 290.092 123.76 289.925C121.319 283.229 115.249 274.468 108.303 267.835ZM248.916 159.762C258.178 146.996 282.646 128.974 317.877 143.993L318.628 144.368C334.085 151.252 346.163 166.959 351.857 185.482C357.614 204.005 357.051 225.72 346.788 244.869L346.288 245.807C335.775 264.769 315.687 280.914 283.334 288.861L281.77 289.237C231.77 301.001 194.536 286.734 174.073 262.704C153.672 238.799 150.168 205.257 167.439 179.349L168.065 178.411C181.644 158.573 198.228 151.314 213.559 150.501C227.702 149.812 240.593 154.631 248.916 159.762ZM126.763 271.652C126.722 271.903 126.701 272.236 126.701 272.654C126.638 274.531 127.201 276.971 128.078 279.537C128.954 282.103 130.143 284.606 131.269 286.608C131.832 287.61 132.333 288.361 132.771 288.986C133.209 289.55 133.459 289.737 133.459 289.737H133.397L133.522 289.8C133.73 289.925 133.918 290.071 134.085 290.238C136.338 290.801 138.716 291.74 141.156 292.866C138.34 286.108 132.896 277.66 126.763 271.652ZM315.937 148.623C281.582 133.98 258.803 153.254 251.732 164.518C251.357 165.144 250.793 165.52 250.105 165.645C249.479 165.832 248.791 165.645 248.228 165.269C240.718 160.138 227.89 154.819 213.81 155.507C200.042 156.195 184.899 162.641 172.195 181.227L171.632 182.103C166.062 190.426 162.808 199.625 161.745 209.074C174.573 184.168 215.624 172.028 228.015 186.045C244.911 205.132 225.512 227.973 204.235 238.924C188.904 246.809 185.775 259.888 185.962 267.585C206.113 284.981 238.34 294.306 280.643 284.356L282.145 283.98C313.434 276.346 332.145 260.951 341.907 243.367L342.345 242.491C342.637 241.948 342.929 241.406 343.221 240.864C340.405 232.791 330.768 220.839 306.863 217.021C268.378 210.889 265.249 164.143 302.17 164.143C327.264 164.143 340.218 174.281 346.288 184.481C340.593 168.085 329.705 154.819 316.563 148.936L315.937 148.623ZM484.961 128.536C493.347 150.25 498.853 203.192 455.612 252.128C477.577 261.452 487.84 272.341 492.158 278.536C497.164 273.342 502.921 267.647 509.679 261.515L510.493 260.764C527.827 244.681 541.469 221.652 551.482 199.187C552.024 197.977 552.546 196.767 553.046 195.557C552.17 184.356 547.852 172.153 542.596 161.139C537.214 150 531.081 140.363 526.888 134.731L526.826 134.669L484.899 128.411L484.961 128.536ZM376.701 112.266C385.9 129.475 408.929 175.595 388.09 240.426C402.796 239.174 421.006 240.426 441.407 246.871L442.283 247.122C445.12 248.039 447.81 248.978 450.355 249.938C450.48 249.562 450.668 249.228 450.919 248.936C493.096 201.627 487.527 150.751 479.705 130.601L479.517 130.1L479.454 129.975C479.204 129.162 479.329 128.286 479.705 127.597L446.726 122.716C446.601 122.716 446.455 122.716 446.288 122.716C445.954 122.674 445.641 122.591 445.349 122.466L376.701 112.266ZM283.209 225.219C283.522 223.655 285.024 222.716 286.588 223.029C288.09 223.404 289.029 224.906 288.716 226.408C287.214 233.167 280.143 247.247 263.372 248.623C247.352 249.938 236.526 240.676 232.833 235.482L232.646 235.232L232.583 235.107C231.77 233.792 232.145 232.165 233.397 231.289C234.648 230.413 236.338 230.726 237.214 231.915L237.277 232.04L237.589 232.416C240.593 236.483 249.542 244.118 262.871 242.991C276.138 241.928 282.02 230.726 283.209 225.219ZM316 103.254C316.667 104.13 317.377 105.111 318.128 106.195C321.382 111.014 324.761 117.96 325.887 126.971L326.012 127.91C328.724 129.787 331.352 131.79 333.897 133.918C357.489 153.505 373.384 185.044 365.124 233.354C364.748 236.608 363.935 240.989 362.496 245.87C367.502 243.93 374.073 242.178 381.957 241.114C404.423 174.343 378.703 127.91 370.568 112.704L369.817 111.327V111.264L316 103.254ZM534.586 135.858C538.528 141.74 543.347 149.812 547.664 158.761C551.669 167.084 555.236 176.346 557.239 185.482C564.06 167.898 568.503 151.815 570.693 141.239L534.586 135.858ZM607.051 100.376C613.997 110.263 618.253 124.531 621.694 142.741C628.265 134.731 630.768 126.283 630.956 118.961C631.206 111.264 628.766 105.257 626.138 102.441L607.051 100.376ZM484.711 84.9814C483.897 84.9188 482.833 84.9188 481.957 85.2317C480.893 85.5446 479.83 86.2956 479.329 88.2981L479.266 88.4858C478.203 92.9914 475.762 96.621 473.634 99.0615C472.571 100.313 471.569 101.314 470.693 102.003C470.276 102.378 469.921 102.67 469.629 102.879C469.379 103.067 469.066 103.317 468.691 103.505L468.566 103.567C468.399 103.651 468.232 103.713 468.065 103.755C466.751 107.76 464.185 111.202 459.492 113.893L459.367 113.955C458.616 114.331 457.802 114.331 457.051 114.018C456.238 113.705 455.612 113.016 455.362 112.203C455.07 111.035 454.84 109.888 454.673 108.761C453.547 111.827 452.295 114.894 450.919 117.71L571.757 135.732C572.883 129.537 573.822 123.842 572.946 118.523C572.383 115.207 571.194 112.14 568.816 109.262C566.5 106.446 563.059 103.755 557.865 101.252L557.302 101.064C554.736 99.875 552.796 98.686 551.419 97.5596C550.293 96.5584 549.166 95.3068 548.853 93.8049L486.526 85.9201H486.338C485.712 85.7949 485.149 85.482 484.711 84.9814ZM255.925 94.3056C258.115 98.4357 259.742 102.566 260.869 106.258C277.702 107.259 299.855 112.328 319.692 123.968C316.939 111.139 309.179 103.943 307.427 102.316L307.114 102.065L307.051 101.94L255.925 94.3056ZM339.279 64.268C338.966 64.2054 338.591 64.2054 338.215 64.3932C337.777 64.5183 337.151 64.8938 336.338 65.7699L336.15 65.8951C333.897 68.3982 332.145 69.7123 330.768 70.4633C330.268 70.7762 329.83 70.9639 329.454 71.0891C328.015 79.4745 324.26 89.049 315.374 97.4971L441.907 116.333C440.405 112.015 439.592 108.01 439.279 104.381C438.215 105.883 437.089 107.259 435.775 108.386L435.712 108.511C434.711 109.262 433.334 109.324 432.333 108.636L432.145 108.511C430.455 107.197 429.579 105.194 429.079 103.317C428.578 101.314 428.39 98.9989 428.516 96.621C428.516 95.4946 428.599 94.3264 428.766 93.1166C428.682 93.0332 428.62 92.9289 428.578 92.8037L428.516 92.6785L428.328 92.2405C426.888 88.4232 425.637 83.1041 426.263 77.7849L344.723 66.8337H344.536C343.785 66.7086 343.159 66.208 342.721 65.5822C342.032 65.3319 341.344 65.019 340.906 64.8312C340.218 64.5183 339.717 64.3306 339.279 64.268ZM452.295 84.1053C451.92 83.7299 451.732 83.7299 451.419 83.7924C450.981 83.9802 450.23 84.4182 449.354 85.2317C448.603 86.0452 447.852 86.9839 447.289 87.9226C444.974 94.3682 443.284 102.378 446.788 113.142C448.415 109.575 449.855 105.632 451.044 101.752C452.796 96.1829 453.985 91.1141 454.36 88.0478C453.609 85.6698 452.796 84.5434 452.295 84.1053ZM461.682 84.9188C461.64 85.044 461.578 85.19 461.494 85.3569C461.181 85.9827 460.931 86.9213 460.618 88.1729C460.556 93.1166 460.118 97.4971 459.992 101.001C459.93 102.941 459.93 104.756 460.055 106.446C461.432 105.006 462.245 103.505 462.746 101.815C463.622 98.8738 463.684 95.3694 463.684 90.7386C463.559 89.4245 463.246 88.0478 462.746 86.7962C462.37 85.9827 461.995 85.3569 461.682 84.9188ZM439.717 80.6009C439.675 80.6009 439.613 80.6218 439.529 80.6635C439.029 80.9138 437.902 81.7273 436.526 84.2931C435.149 88.0478 434.273 92.7411 434.148 96.8087C434.085 98.6235 434.148 100.188 434.398 101.502C435.587 99.8125 436.651 97.81 437.652 95.6197C439.279 92.0528 440.468 88.3606 441.219 85.7949L441.281 85.6698C441.407 85.044 441.407 84.0427 441.156 83.0415C440.843 81.9151 440.405 81.1016 439.967 80.7887C439.884 80.7052 439.821 80.6635 439.78 80.6635C439.738 80.6218 439.717 80.6009 439.717 80.6009ZM309.805 86.233C308.678 89.9251 307.489 93.3043 306.238 96.1203L310.556 96.7461C310.514 96.621 310.472 96.5167 310.43 96.4332C309.867 94.243 309.742 90.9889 309.805 87.4846C309.805 87.0674 309.805 86.6502 309.805 86.233ZM478.328 72.4658C470.318 68.1479 459.805 64.8312 447.602 65.8951H447.039C442.158 66.3957 438.904 67.7098 436.651 69.3994C434.46 71.0891 433.146 73.2793 432.395 75.6573C431.895 77.472 431.707 79.3494 431.77 81.2893C433.334 78.4733 435.149 76.4708 437.214 75.5321C439.654 74.4057 442.032 75.0941 443.722 76.5334C444.911 77.5972 445.725 79.0365 446.225 80.4758C447.289 79.5997 448.541 78.7862 449.98 78.4107C452.045 77.8475 454.235 78.223 456.113 79.9126C456.53 80.3298 456.926 80.7887 457.302 81.2893C457.635 80.8721 457.969 80.4967 458.303 80.1629C459.241 79.3494 460.368 78.8488 461.682 78.9113C462.934 78.9113 463.935 79.4745 464.686 80.0377C466.188 81.1641 467.251 82.9789 467.94 84.6685C468.628 86.3581 469.129 88.2355 469.254 90.1128L469.317 90.4883C469.317 90.5717 469.317 90.6343 469.317 90.676C469.317 92.3031 469.317 93.9301 469.254 95.4946C469.296 95.4528 469.317 95.4111 469.317 95.3694C471.131 93.3043 472.946 90.4883 473.76 87.1717L473.822 86.7962C474.886 82.9163 477.389 80.7887 480.143 79.85C482.646 79.0365 485.211 79.2242 486.964 79.7248L487.339 79.85H487.464C487.84 80.0169 488.173 80.2463 488.465 80.5384L489.905 80.6635C487.151 78.0978 483.271 75.0941 478.328 72.4658ZM295.599 81.1016C294.16 85.9827 292.783 90.3006 291.72 92.6785L291.594 93.054C291.428 93.346 291.24 93.6172 291.031 93.8675L298.04 94.8688C296.663 90.5509 295.912 85.7949 295.599 81.1016ZM123.572 37.7974C123.53 37.8392 123.447 37.8809 123.322 37.9226C123.03 38.0477 122.654 38.2772 122.195 38.611C121.319 39.2993 120.255 40.3631 119.317 41.7399C117.314 44.5559 115.75 48.5609 115.75 53.442V53.9426C115.812 59.6372 117.001 63.1416 118.44 65.3319C119.817 67.3969 121.507 68.5233 123.009 69.1491L224.949 84.6685C225.199 82.3531 225.825 80.1003 227.014 78.223C228.328 76.0953 230.518 74.5309 233.459 74.4057C236.213 74.2805 239.154 75.4695 242.22 77.7223L242.721 78.0978C246.35 80.8513 249.479 84.2931 252.108 88.0478L286.463 93.1792C286.38 92.9706 286.317 92.762 286.275 92.5534C284.961 87.1091 283.459 79.1616 283.021 70.8387C282.833 66.8337 282.896 62.641 283.334 58.5734L123.572 37.7974ZM309.241 49.0615C308.866 48.7486 308.678 48.7486 308.428 48.8112C307.927 48.9364 307.176 49.3744 306.3 50.2505C305.549 51.064 304.798 52.0027 304.235 52.8788C302.921 56.6961 301.482 64.1429 301.169 72.4032C300.919 78.4107 301.294 84.6685 302.608 90.1754C304.298 85.482 305.987 79.4745 307.364 73.4044C309.429 64.7061 310.869 56.5083 311.307 53.0665C310.556 50.6886 309.805 49.5621 309.241 49.0615ZM320.881 48.6235C320.443 48.4983 320.005 48.4983 319.567 48.9364C319.004 49.437 318.128 50.6886 317.564 53.1917C317.502 58.3857 316.626 67.3969 316 75.6573C315.687 79.9752 315.437 84.1053 315.374 87.5471C315.374 88.1312 315.374 88.6735 315.374 89.1742C325.95 76.1579 324.886 61.2017 324.01 53.9426L323.947 53.1917V52.9414C323.822 50.7511 322.133 48.9364 320.881 48.6235ZM296.225 45.9952C295.662 45.6197 295.224 45.5571 294.723 45.7449C294.098 45.9952 292.909 46.8713 291.532 49.437C288.904 55.0064 288.278 62.7036 288.653 70.5884C288.841 74.1554 289.279 77.7223 289.78 81.039C290.718 77.7849 291.782 74.0928 292.846 70.4007C295.161 61.9526 297.414 53.442 298.228 50.8137V50.6886C298.353 50.1879 298.29 49.3744 297.915 48.3106C297.539 47.2467 296.851 46.4332 296.225 45.9952ZM338.215 45.6197C329.079 37.7974 317.752 31.477 305.987 32.3531L305.424 32.4157C295.725 33.2918 290.969 37.422 288.841 41.8024C288.424 42.762 288.09 43.7215 287.84 44.681C289.216 42.6785 290.843 41.2392 292.658 40.4883C295.224 39.487 297.665 40.1128 299.479 41.3644C301.044 42.4908 302.17 44.0553 302.921 45.7449C304.047 44.7436 305.362 43.8049 306.926 43.3669C308.991 42.8663 311.181 43.2417 313.059 44.9314C313.518 45.3485 313.956 45.8492 314.373 46.4332C314.79 45.7657 315.27 45.2025 315.812 44.7436C317.752 42.9914 320.13 42.5534 322.32 43.1166C326.263 44.1804 329.267 48.3106 329.517 52.5659C329.83 55.1942 330.268 59.1992 330.143 64.0177C330.643 63.5171 331.332 62.8913 332.083 62.0778L332.27 61.8275C333.522 60.5759 334.794 59.679 336.088 59.1366C337.589 58.5734 338.966 58.5108 340.218 58.6986C341.407 58.8863 342.408 59.3243 343.159 59.6998C343.972 60.0127 344.41 60.263 344.786 60.3882L344.974 60.4508H345.099C345.599 60.6385 346.037 61.014 346.35 61.3894L353.86 62.3907C350.668 58.1979 345.224 51.6272 338.215 45.6197Z" fill="black"/>
<path d="M201.356 206.883C208.115 202.753 213.684 204.318 216.813 205.632L217.251 205.82C219.504 206.883 221.006 208.072 222.132 209.512C222.946 210.576 223.447 211.765 223.947 212.828L224.385 213.767V213.892C224.886 215.144 224.323 216.583 223.071 217.084C221.882 217.647 220.443 217.146 219.817 215.957L219.754 215.832L219.316 214.768C218.878 213.83 218.565 213.141 218.127 212.515C217.627 211.89 216.813 211.139 215.186 210.388L214.811 210.263C212.621 209.261 208.928 208.198 204.172 211.014L203.672 211.326C201.794 212.515 200.856 213.83 200.355 215.144C199.917 216.395 199.729 217.835 199.604 219.524L199.542 220.338C199.417 221.714 198.228 222.716 196.851 222.653C195.474 222.528 194.41 221.339 194.535 219.962L194.598 219.211C194.723 217.397 194.973 215.331 195.662 213.392C196.6 211.014 198.165 208.823 201.044 207.071L201.356 206.883ZM297.414 189.674C304.11 185.607 309.742 187.109 312.871 188.485L313.309 188.673C315.562 189.674 317.064 190.863 318.127 192.365C318.941 193.429 319.504 194.618 320.005 195.619L320.38 196.621L320.443 196.746C320.943 197.997 320.38 199.374 319.129 199.937C317.94 200.5 316.5 199.937 315.875 198.811L315.812 198.686L315.374 197.622C314.936 196.621 314.623 195.995 314.185 195.369C313.684 194.681 312.871 193.992 311.244 193.241L310.868 193.054C308.678 192.115 304.986 191.051 300.23 193.867L299.729 194.117C297.789 195.369 296.913 196.621 296.413 197.997C295.975 199.249 295.787 200.626 295.662 202.378L295.599 203.191C295.474 204.568 294.285 205.569 292.908 205.444C291.532 205.382 290.468 204.13 290.593 202.753L290.656 202.002C290.781 200.25 290.968 198.185 291.719 196.183C292.658 193.867 294.223 191.677 297.039 189.925L297.414 189.674Z" fill="white"/>
</svg>
