<svg width="564" height="564" viewBox="0 0 564 564" fill="none" xmlns="http://www.w3.org/2000/svg">
<mask id="mask0_452_522" style="mask-type:alpha" maskUnits="userSpaceOnUse" x="0" y="0" width="564" height="564">
<rect width="564" height="564" fill="#D9D9D9"/>
</mask>
<g mask="url(#mask0_452_522)">
<path d="M211.5 493.5H117.5C104.575 493.5 93.5104 488.898 84.3063 479.694C75.1021 470.49 70.5 459.425 70.5 446.5V282C70.5 252.625 76.0813 225.11 87.2438 199.456C98.4063 173.802 113.485 151.477 132.481 132.481C151.477 113.485 173.802 98.4063 199.456 87.2438C225.11 76.0813 252.625 70.5 282 70.5C311.375 70.5 338.89 76.0813 364.544 87.2438C390.198 98.4063 412.523 113.485 431.519 132.481C450.515 151.477 465.594 173.802 476.756 199.456C487.919 225.11 493.5 252.625 493.5 282V446.5C493.5 459.425 488.898 470.49 479.694 479.694C470.49 488.898 459.425 493.5 446.5 493.5H352.5V305.5H446.5V282C446.5 236.175 430.54 197.302 398.619 165.381C366.698 133.46 327.825 117.5 282 117.5C236.175 117.5 197.302 133.46 165.381 165.381C133.46 197.302 117.5 236.175 117.5 282V305.5H211.5V493.5ZM164.5 352.5H117.5V446.5H164.5V352.5ZM399.5 352.5V446.5H446.5V352.5H399.5Z" fill="white"/>
</g>
</svg>
