<svg width="111" height="111" viewBox="0 0 111 111" fill="none" xmlns="http://www.w3.org/2000/svg">
<g filter="url(#filter0_d_189_1723)">
<rect x="28.6602" y="9.72949" width="53.8235" height="53.8235" rx="26.9118" fill="white" fill-opacity="0.25" shape-rendering="crispEdges"/>
<g clip-path="url(#clip0_189_1723)">
<path d="M55.6602 29.2623C58.0648 29.2623 58.3496 29.2729 59.2953 29.315C60.1742 29.3537 60.6488 29.5014 60.9652 29.6244C61.3836 29.7861 61.6859 29.983 61.9988 30.2959C62.3152 30.6123 62.5086 30.9111 62.6703 31.3295C62.7934 31.6459 62.941 32.124 62.9797 32.9994C63.0219 33.9486 63.0324 34.2334 63.0324 36.6346C63.0324 39.0393 63.0219 39.324 62.9797 40.2697C62.941 41.1486 62.7934 41.6232 62.6703 41.9396C62.5086 42.358 62.3117 42.6604 61.9988 42.9732C61.6824 43.2896 61.3836 43.483 60.9652 43.6447C60.6488 43.7678 60.1707 43.9154 59.2953 43.9541C58.3461 43.9963 58.0613 44.0068 55.6602 44.0068C53.2555 44.0068 52.9707 43.9963 52.025 43.9541C51.1461 43.9154 50.6715 43.7678 50.3551 43.6447C49.9367 43.483 49.6344 43.2861 49.3215 42.9732C49.0051 42.6568 48.8117 42.358 48.65 41.9396C48.527 41.6232 48.3793 41.1451 48.3406 40.2697C48.2984 39.3205 48.2879 39.0357 48.2879 36.6346C48.2879 34.2299 48.2984 33.9451 48.3406 32.9994C48.3793 32.1205 48.527 31.6459 48.65 31.3295C48.8117 30.9111 49.0086 30.6088 49.3215 30.2959C49.6379 29.9795 49.9367 29.7861 50.3551 29.6244C50.6715 29.5014 51.1496 29.3537 52.025 29.315C52.9707 29.2729 53.2555 29.2623 55.6602 29.2623ZM55.6602 27.6416C53.2168 27.6416 52.9109 27.6521 51.9512 27.6943C50.9949 27.7365 50.3375 27.8912 49.768 28.1127C49.1738 28.3447 48.6711 28.6506 48.1719 29.1533C47.6691 29.6525 47.3633 30.1553 47.1313 30.7459C46.9098 31.3189 46.7551 31.9729 46.7129 32.9291C46.6707 33.8924 46.6602 34.1982 46.6602 36.6416C46.6602 39.085 46.6707 39.3908 46.7129 40.3506C46.7551 41.3068 46.9098 41.9643 47.1313 42.5338C47.3633 43.1279 47.6691 43.6307 48.1719 44.1299C48.6711 44.6291 49.1738 44.9385 49.7645 45.167C50.3375 45.3885 50.9914 45.5432 51.9477 45.5854C52.9074 45.6275 53.2133 45.6381 55.6566 45.6381C58.1 45.6381 58.4059 45.6275 59.3656 45.5854C60.3219 45.5432 60.9793 45.3885 61.5488 45.167C62.1395 44.9385 62.6422 44.6291 63.1414 44.1299C63.6406 43.6307 63.95 43.1279 64.1785 42.5373C64.4 41.9643 64.5547 41.3104 64.5969 40.3541C64.6391 39.3943 64.6496 39.0885 64.6496 36.6451C64.6496 34.2018 64.6391 33.8959 64.5969 32.9361C64.5547 31.9799 64.4 31.3225 64.1785 30.7529C63.957 30.1553 63.6512 29.6525 63.1484 29.1533C62.6492 28.6541 62.1465 28.3447 61.5559 28.1162C60.9828 27.8947 60.3289 27.74 59.3727 27.6979C58.4094 27.6521 58.1035 27.6416 55.6602 27.6416Z" fill="white"/>
<path d="M55.6602 32.0186C53.1078 32.0186 51.0371 34.0893 51.0371 36.6416C51.0371 39.1939 53.1078 41.2646 55.6602 41.2646C58.2125 41.2646 60.2832 39.1939 60.2832 36.6416C60.2832 34.0893 58.2125 32.0186 55.6602 32.0186ZM55.6602 39.6404C54.0043 39.6404 52.6613 38.2975 52.6613 36.6416C52.6613 34.9857 54.0043 33.6428 55.6602 33.6428C57.316 33.6428 58.659 34.9857 58.659 36.6416C58.659 38.2975 57.316 39.6404 55.6602 39.6404Z" fill="white"/>
<path d="M61.5453 31.8361C61.5453 32.4338 61.0602 32.9154 60.466 32.9154C59.8684 32.9154 59.3867 32.4303 59.3867 31.8361C59.3867 31.2385 59.8719 30.7568 60.466 30.7568C61.0602 30.7568 61.5453 31.242 61.5453 31.8361Z" fill="white"/>
</g>
</g>
<defs>
<filter id="filter0_d_189_1723" x="0.660156" y="0.729492" width="109.823" height="109.823" filterUnits="userSpaceOnUse" color-interpolation-filters="sRGB">
<feFlood flood-opacity="0" result="BackgroundImageFix"/>
<feColorMatrix in="SourceAlpha" type="matrix" values="0 0 0 0 0 0 0 0 0 0 0 0 0 0 0 0 0 0 127 0" result="hardAlpha"/>
<feOffset dy="19"/>
<feGaussianBlur stdDeviation="14"/>
<feComposite in2="hardAlpha" operator="out"/>
<feColorMatrix type="matrix" values="0 0 0 0 0 0 0 0 0 0 0 0 0 0 0 0 0 0 0.1 0"/>
<feBlend mode="normal" in2="BackgroundImageFix" result="effect1_dropShadow_189_1723"/>
<feBlend mode="normal" in="SourceGraphic" in2="effect1_dropShadow_189_1723" result="shape"/>
</filter>
<clipPath id="clip0_189_1723">
<rect width="18" height="18" fill="white" transform="translate(46.6602 27.6416)"/>
</clipPath>
</defs>
</svg>
