<svg width="270" height="271" viewBox="0 0 270 271" fill="none" xmlns="http://www.w3.org/2000/svg">
<g clip-path="url(#clip0_468_386)">
<path d="M135.06 66.0958C96.7299 66.0958 65.8125 97.0562 65.8125 135.44C65.8125 173.823 96.7299 204.784 135.06 204.784C173.391 204.784 204.308 173.823 204.308 135.44C204.308 97.0562 173.391 66.0958 135.06 66.0958ZM135.06 180.522C110.29 180.522 90.0402 160.305 90.0402 135.44C90.0402 110.575 110.23 90.3572 135.06 90.3572C159.891 90.3572 180.08 110.575 180.08 135.44C180.08 160.305 159.83 180.522 135.06 180.522ZM223.292 63.2593C223.292 72.2517 216.06 79.4336 207.141 79.4336C198.161 79.4336 190.989 72.1914 190.989 63.2593C190.989 54.3273 198.221 47.0851 207.141 47.0851C216.06 47.0851 223.292 54.3273 223.292 63.2593ZM269.156 79.675C268.132 58.0087 263.19 38.8169 247.339 23.0048C231.549 7.19272 212.384 2.2439 190.748 1.15757C168.449 -0.109814 101.612 -0.109814 79.3125 1.15757C57.7366 2.18354 38.5715 7.13237 22.721 22.9445C6.87057 38.7566 1.98887 57.9484 0.904053 79.6146C-0.361572 101.945 -0.361572 168.875 0.904053 191.205C1.92861 212.871 6.87057 232.063 22.721 247.875C38.5715 263.687 57.6764 268.636 79.3125 269.722C101.612 270.989 168.449 270.989 190.748 269.722C212.384 268.696 231.549 263.747 247.339 247.875C263.129 232.063 268.071 212.871 269.156 191.205C270.422 168.875 270.422 102.005 269.156 79.675ZM240.348 215.164C235.647 226.993 226.547 236.106 214.674 240.874C196.895 247.935 154.708 246.306 135.06 246.306C115.413 246.306 73.1652 247.875 55.4465 240.874C43.634 236.167 34.5335 227.053 29.7724 215.164C22.721 197.36 24.3482 155.114 24.3482 135.44C24.3482 115.765 22.7813 73.4587 29.7724 55.7154C34.4732 43.8865 43.5737 34.7734 55.4465 30.0056C73.2255 22.9445 115.413 24.574 135.06 24.574C154.708 24.574 196.955 23.0048 214.674 30.0056C226.487 34.713 235.587 43.8261 240.348 55.7154C247.4 73.5191 245.772 115.765 245.772 135.44C245.772 155.114 247.4 197.421 240.348 215.164Z" fill="white"/>
</g>
<defs>
<clipPath id="clip0_468_386">
<rect width="270" height="271" fill="white"/>
</clipPath>
</defs>
</svg>
