<svg width="270" height="276" viewBox="0 0 270 276" fill="none" xmlns="http://www.w3.org/2000/svg">
<path d="M60.4366 270.375H4.45982V89.8633H60.4366V270.375ZM32.4181 65.2399C14.5185 65.2399 0 50.3934 0 32.469C1.28117e-07 23.8592 3.41547 15.6021 9.49504 9.51408C15.5746 3.42607 23.8203 0.00585937 32.4181 0.00585938C41.0159 0.00585937 49.2616 3.42607 55.3411 9.51408C61.4207 15.6021 64.8362 23.8592 64.8362 32.469C64.8362 50.3934 50.3116 65.2399 32.4181 65.2399ZM269.94 270.375H214.083V182.503C214.083 161.561 213.662 134.705 184.98 134.705C155.877 134.705 151.417 157.457 151.417 180.994V270.375H95.5005V89.8633H149.187V114.487H149.971C157.444 100.304 175.699 85.3369 202.934 85.3369C259.586 85.3369 270 122.695 270 171.217V270.375H269.94Z" fill="white"/>
</svg>
