<svg width="120" height="121" viewBox="0 0 120 121" fill="none" xmlns="http://www.w3.org/2000/svg">
<g filter="url(#filter0_d_381_241)">
<circle cx="60" cy="41.9658" r="30" fill="white"/>
</g>
<path d="M60.25 52.2158H55.25V37.2158H60.25V39.7158C60.7764 39.0462 61.4444 38.5013 62.2062 38.1203C62.968 37.7393 63.8047 37.5316 64.6562 37.5121C66.1455 37.5203 67.5707 38.1188 68.6193 39.1764C69.6679 40.2339 70.2543 41.6641 70.25 43.1533V52.2158H65.25V43.7783C65.1533 43.1028 64.8158 42.4849 64.2997 42.0384C63.7837 41.5919 63.1237 41.3469 62.4412 41.3483C62.1358 41.358 61.8355 41.4292 61.5583 41.5578C61.2811 41.6864 61.0327 41.8697 60.828 42.0966C60.6234 42.3235 60.4667 42.5895 60.3674 42.8785C60.2681 43.1674 60.2281 43.4735 60.25 43.7783V52.2158ZM52.75 52.2158H47.75V37.2158H52.75V52.2158ZM50.25 34.7158C49.587 34.7158 48.9511 34.4524 48.4822 33.9836C48.0134 33.5147 47.75 32.8789 47.75 32.2158C47.75 31.5528 48.0134 30.9169 48.4822 30.4481C48.9511 29.9792 49.587 29.7158 50.25 29.7158C50.913 29.7158 51.5489 29.9792 52.0178 30.4481C52.4866 30.9169 52.75 31.5528 52.75 32.2158C52.75 32.8789 52.4866 33.5147 52.0178 33.9836C51.5489 34.4524 50.913 34.7158 50.25 34.7158Z" fill="#0053F1"/>
<defs>
<filter id="filter0_d_381_241" x="0" y="0.96582" width="120" height="120" filterUnits="userSpaceOnUse" color-interpolation-filters="sRGB">
<feFlood flood-opacity="0" result="BackgroundImageFix"/>
<feColorMatrix in="SourceAlpha" type="matrix" values="0 0 0 0 0 0 0 0 0 0 0 0 0 0 0 0 0 0 127 0" result="hardAlpha"/>
<feOffset dy="19"/>
<feGaussianBlur stdDeviation="15"/>
<feComposite in2="hardAlpha" operator="out"/>
<feColorMatrix type="matrix" values="0 0 0 0 0 0 0 0 0 0 0 0 0 0 0 0 0 0 0.2 0"/>
<feBlend mode="normal" in2="BackgroundImageFix" result="effect1_dropShadow_381_241"/>
<feBlend mode="normal" in="SourceGraphic" in2="effect1_dropShadow_381_241" result="shape"/>
</filter>
</defs>
</svg>
