<svg width="567" height="226" viewBox="0 0 567 226" fill="none" xmlns="http://www.w3.org/2000/svg">
<g clip-path="url(#clip0_313_280)">
<path d="M46.0004 88.9001C34.4004 88.9001 25.4004 86.3001 19.0004 81.1001C12.6671 75.9001 9.46706 68.4668 9.40039 58.8001H25.4004C25.467 64.8668 27.2671 69.2334 30.8004 71.9001C34.4004 74.5001 39.6337 75.8001 46.5004 75.8001C52.1004 75.8001 56.4004 74.7668 59.4004 72.7001C62.3337 70.5668 63.8004 67.5001 63.8004 63.5001C63.8004 60.1001 62.5337 57.5334 60.0004 55.8001C57.4671 54.0001 52.9004 52.4334 46.3004 51.1001L39.1004 49.7001C20.7671 46.2334 11.6004 37.5668 11.6004 23.7001C11.6004 16.3668 14.4004 10.5334 20.0004 6.2001C25.6004 1.8001 33.3671 -0.399902 43.3004 -0.399902C54.5671 -0.399902 63.0671 2.0001 68.8004 6.8001C74.6671 11.6001 77.7671 18.3334 78.1004 27.0001H62.4004C62.067 22.1334 60.4004 18.5334 57.4004 16.2001C54.5337 13.8668 49.9004 12.7001 43.5004 12.7001C38.5671 12.7001 34.7671 13.6334 32.1004 15.5001C29.4337 17.3001 28.1004 19.9001 28.1004 23.3001C28.1004 26.7001 29.3004 29.3334 31.7004 31.2001C34.2337 33.0001 38.6004 34.5668 44.8004 35.9001L52.3004 37.3001C62.3004 39.3001 69.5004 42.3001 73.9004 46.3001C78.367 50.2334 80.6004 55.6668 80.6004 62.6001C80.6004 70.9334 77.5671 77.4334 71.5004 82.1001C65.4337 86.6334 56.9337 88.9001 46.0004 88.9001ZM106.2 35.9001H145.9V1.5001H162.1V87.0001H145.9V50.5001H106.2V87.0001H90.0004V1.5001H106.2V35.9001ZM219.7 1.6001L252.9 87.1001H235.7L229 68.2001H191.5L184.9 87.1001H168.2L200.8 1.6001H219.7ZM199.6 45.2001L196.4 54.4001H224L220.6 45.2001C217.8 38.0668 214.3 28.3001 210.1 15.9001C206.7 25.8334 203.2 35.6001 199.6 45.2001ZM259 87.1001V1.6001H296.6C306.134 1.6001 313.534 4.13343 318.8 9.2001C324.2 14.1334 326.9 20.8668 326.9 29.4001C326.9 37.9334 324.2 44.7001 318.8 49.7001C313.534 54.7001 306.134 57.2001 296.6 57.2001H275.3V87.1001H259ZM275.2 15.5001V43.2001H295.8C300.534 43.2001 304.134 42.0668 306.6 39.8001C309.2 37.4001 310.5 33.9334 310.5 29.4001C310.5 24.9334 309.2 21.5001 306.6 19.1001C304.134 16.7001 300.534 15.5001 295.8 15.5001H275.2ZM336.8 1.6001H399.8V16.1001H353V36.3001H395.4V50.2001H353V72.5001H399.6V87.1001H336.8V1.6001ZM476.8 64.4001L477.5 77.1001C477.567 81.1668 478.434 84.4668 480.1 87.0001H463.4C462 84.6001 461.267 81.2001 461.2 76.8001L460.8 67.5001C460.534 62.3001 459.334 58.7001 457.2 56.7001C455.134 54.5668 451.767 53.5001 447.1 53.5001H426V87.0001H409.8V1.6001H448.6C458.067 1.6001 465.467 3.73343 470.8 8.0001C476.067 12.3334 478.7 18.2334 478.7 25.7001C478.7 35.9668 473.934 42.7668 464.4 46.1001C468.734 47.4334 471.8 49.6001 473.6 52.6001C475.534 55.4668 476.6 59.4001 476.8 64.4001ZM447 14.9001H426V40.8001H447.6C452.134 40.8001 455.667 39.7001 458.2 37.5001C460.734 35.1668 462 31.8334 462 27.5001C462 23.4334 460.667 20.3001 458 18.1001C455.467 15.9668 451.8 14.9001 447 14.9001ZM522.1 89.0001C510.5 89.0001 501.5 86.4001 495.1 81.2001C488.767 76.0001 485.567 68.5334 485.5 58.8001H501.5C501.567 64.9334 503.367 69.3001 506.9 71.9001C510.5 74.5668 515.734 75.9001 522.6 75.9001C528.2 75.9001 532.5 74.8668 535.5 72.8001C538.434 70.6001 539.9 67.5001 539.9 63.5001C539.9 60.1668 538.634 57.6001 536.1 55.8001C533.567 54.0668 529 52.5001 522.4 51.1001L515.2 49.7001C496.867 46.2334 487.7 37.6001 487.7 23.8001C487.7 16.4001 490.5 10.5334 496.1 6.2001C501.7 1.8001 509.467 -0.399902 519.4 -0.399902C530.667 -0.399902 539.167 2.0001 544.9 6.8001C550.767 11.6668 553.867 18.4001 554.2 27.0001H538.5C538.167 22.1334 536.5 18.5334 533.5 16.2001C530.634 13.8668 526 12.7001 519.6 12.7001C514.667 12.7001 510.867 13.6334 508.2 15.5001C505.6 17.3668 504.3 19.9668 504.3 23.3001C504.3 26.7668 505.5 29.4001 507.9 31.2001C510.367 33.0668 514.7 34.6334 520.9 35.9001L528.4 37.3001C538.4 39.3001 545.6 42.3001 550 46.3001C554.467 50.2334 556.7 55.7001 556.7 62.7001C556.7 71.0334 553.667 77.5001 547.6 82.1001C541.534 86.7001 533.034 89.0001 522.1 89.0001Z" fill="white"/>
<path d="M153.1 224.4C137.9 224.4 125.6 219.4 116.2 209.4C106.733 199.4 102 186.033 102 169.3C102 152.367 106.7 138.933 116.1 129C125.367 119.067 137.7 114.1 153.1 114.1C165.433 114.1 175.967 117.433 184.7 124.1C193.367 130.7 198.8 140.267 201 152.8H180.7C178.9 145.867 175.6 140.633 170.8 137.1C166 133.433 160.1 131.6 153.1 131.6C143.767 131.6 136.367 134.967 130.9 141.7C125.567 148.3 122.9 157.5 122.9 169.3C122.9 181.1 125.567 190.333 130.9 197C136.233 203.6 143.633 206.9 153.1 206.9C160.433 206.9 166.7 204.733 171.9 200.4C177.167 196 180.333 189.967 181.4 182.3H201.4C200.133 195.7 194.9 206.067 185.7 213.4C176.633 220.733 165.767 224.4 153.1 224.4ZM213.9 116.5H233.9V204.1H284.1V222H213.9V116.5ZM315.1 116.5V222H295.1V116.5H315.1ZM398 166.7L415.7 116.5H444.7V222H425.6V189.8C425.6 170.067 425.8 152.633 426.2 137.5C424 144.967 421.333 153.067 418.2 161.8L396.9 222H380.4L358.9 161.8C355.167 150.867 352.567 142.867 351.1 137.8C351.5 152.867 351.7 170.2 351.7 189.8V222H332.4V116.5H361.4L379.7 167.8C380.9 171.267 383.9 180.8 388.7 196.4C391.9 185.4 395 175.5 398 166.7ZM516 116.5L556.9 222H535.7L527.4 198.7H481.2L473 222H452.4L492.6 116.5H516ZM491.2 170.3L487.2 181.7H521.3L517.2 170.3C513.733 161.5 509.367 149.433 504.1 134.1C499.967 146.367 495.667 158.433 491.2 170.3Z" fill="white"/>
<path d="M9.2002 156V114.6H26.8002C31.3335 114.6 34.8335 115.8 37.3002 118.2C39.7669 120.533 41.0002 123.7 41.0002 127.7C41.0002 131.7 39.7669 134.867 37.3002 137.2C34.8335 139.533 31.3335 140.7 26.8002 140.7H15.4002V156H9.2002ZM15.4002 120.1V135.3H26.7002C29.3002 135.3 31.2669 134.633 32.6002 133.3C34.0002 132.033 34.7002 130.167 34.7002 127.7C34.7002 125.233 34.0002 123.367 32.6002 122.1C31.2669 120.767 29.3002 120.1 26.7002 120.1H15.4002ZM46.2002 114.6H75.7002V120.2H52.4002V131.9H73.5002V137.3H52.4002V150.4H75.5002V156H46.2002V114.6ZM9.2002 183.6H15.4002V219.4H35.7002V225H9.2002V183.6ZM54.8002 225.9C48.6669 225.9 43.8002 223.9 40.2002 219.9C36.4669 215.967 34.6002 210.767 34.6002 204.3C34.6002 197.833 36.4669 192.6 40.2002 188.6C43.8002 184.6 48.6669 182.6 54.8002 182.6C60.8669 182.6 65.7669 184.6 69.5002 188.6C73.1669 192.6 75.0002 197.833 75.0002 204.3C75.0002 210.7 73.1669 215.9 69.5002 219.9C65.7669 223.9 60.8669 225.9 54.8002 225.9ZM44.8002 215.9C47.2669 218.833 50.6002 220.3 54.8002 220.3C59.0002 220.3 62.3335 218.833 64.8002 215.9C67.2669 213.1 68.5002 209.233 68.5002 204.3C68.5002 199.3 67.2669 195.367 64.8002 192.5C62.2669 189.633 58.9335 188.2 54.8002 188.2C50.6669 188.2 47.3335 189.633 44.8002 192.5C42.2669 195.433 41.0002 199.367 41.0002 204.3C41.0002 209.167 42.2669 213.033 44.8002 215.9Z" fill="white"/>
</g>
<defs>
<clipPath id="clip0_313_280">
<rect width="567" height="226" fill="white"/>
</clipPath>
</defs>
</svg>
