<svg width="70" height="71" viewBox="0 0 70 71" fill="none" xmlns="http://www.w3.org/2000/svg">
<rect y="0.48291" width="70" height="70" rx="20" fill="#04642E"/>
<mask id="mask0_178_1529" style="mask-type:alpha" maskUnits="userSpaceOnUse" x="20" y="20" width="30" height="31">
<rect x="20" y="20.4829" width="30" height="30" fill="#D9D9D9"/>
</mask>
<g mask="url(#mask0_178_1529)">
<path d="M42.5 36.7329V34.2329H47.5V36.7329H42.5ZM44 45.4829L40 42.4829L41.5 40.4829L45.5 43.4829L44 45.4829ZM41.5 30.4829L40 28.4829L44 25.4829L45.5 27.4829L41.5 30.4829ZM26.25 44.2329V39.2329H25C24.3125 39.2329 23.724 38.9881 23.2344 38.4985C22.7448 38.009 22.5 37.4204 22.5 36.7329V34.2329C22.5 33.5454 22.7448 32.9569 23.2344 32.4673C23.724 31.9777 24.3125 31.7329 25 31.7329H30L36.25 27.9829V42.9829L30 39.2329H28.75V44.2329H26.25ZM33.75 38.5454V32.4204L30.6875 34.2329H25V36.7329H30.6875L33.75 38.5454ZM37.5 39.6704V31.2954C38.0625 31.7954 38.5156 32.4048 38.8594 33.1235C39.2031 33.8423 39.375 34.6287 39.375 35.4829C39.375 36.3371 39.2031 37.1235 38.8594 37.8423C38.5156 38.561 38.0625 39.1704 37.5 39.6704Z" fill="white"/>
</g>
</svg>
