<svg width="70" height="70" viewBox="0 0 70 70" fill="none" xmlns="http://www.w3.org/2000/svg">
<rect width="70" height="70" rx="20" fill="#04642E"/>
<mask id="mask0_178_1511" style="mask-type:alpha" maskUnits="userSpaceOnUse" x="20" y="20" width="30" height="30">
<rect x="20" y="20" width="30" height="30" fill="#D9D9D9"/>
</mask>
<g mask="url(#mask0_178_1511)">
<path d="M35 31.25L30.625 26.875L35 22.5L39.375 26.875L35 31.25ZM21.25 45V40C21.25 39.2917 21.4948 38.6979 21.9844 38.2188C22.474 37.7396 23.0625 37.5 23.75 37.5H27.8438C28.2604 37.5 28.6562 37.6042 29.0312 37.8125C29.4062 38.0208 29.7083 38.3021 29.9375 38.6562C30.5417 39.4688 31.2865 40.1042 32.1719 40.5625C33.0573 41.0208 34 41.25 35 41.25C36.0208 41.25 36.974 41.0208 37.8594 40.5625C38.7448 40.1042 39.4792 39.4688 40.0625 38.6562C40.3333 38.3021 40.651 38.0208 41.0156 37.8125C41.3802 37.6042 41.7604 37.5 42.1562 37.5H46.25C46.9583 37.5 47.5521 37.7396 48.0313 38.2188C48.5104 38.6979 48.75 39.2917 48.75 40V45H40V42.1562C39.2708 42.6771 38.4844 43.0729 37.6406 43.3438C36.7969 43.6146 35.9167 43.75 35 43.75C34.1042 43.75 33.2292 43.6094 32.375 43.3281C31.5208 43.0469 30.7292 42.6458 30 42.125V45H21.25ZM25 36.25C23.9583 36.25 23.0729 35.8854 22.3438 35.1562C21.6146 34.4271 21.25 33.5417 21.25 32.5C21.25 31.4375 21.6146 30.5469 22.3438 29.8281C23.0729 29.1094 23.9583 28.75 25 28.75C26.0625 28.75 26.9531 29.1094 27.6719 29.8281C28.3906 30.5469 28.75 31.4375 28.75 32.5C28.75 33.5417 28.3906 34.4271 27.6719 35.1562C26.9531 35.8854 26.0625 36.25 25 36.25ZM45 36.25C43.9583 36.25 43.0729 35.8854 42.3438 35.1562C41.6146 34.4271 41.25 33.5417 41.25 32.5C41.25 31.4375 41.6146 30.5469 42.3438 29.8281C43.0729 29.1094 43.9583 28.75 45 28.75C46.0625 28.75 46.9531 29.1094 47.6719 29.8281C48.3906 30.5469 48.75 31.4375 48.75 32.5C48.75 33.5417 48.3906 34.4271 47.6719 35.1562C46.9531 35.8854 46.0625 36.25 45 36.25Z" fill="white"/>
</g>
</svg>
