<svg width="265" height="274" viewBox="0 0 265 274" fill="none" xmlns="http://www.w3.org/2000/svg">
<path d="M132.5 4.28125C59.3579 4.28125 0 63.7371 0 137C0 210.263 59.3579 269.719 132.5 269.719C205.642 269.719 265 210.263 265 137C265 63.7371 205.642 4.28125 132.5 4.28125ZM186.301 199.56C184.057 199.56 182.668 198.864 180.585 197.633C147.246 177.511 108.458 176.655 70.1502 184.522C68.0665 185.057 65.3417 185.913 63.7923 185.913C58.6099 185.913 55.3508 181.793 55.3508 177.458C55.3508 171.946 58.6099 169.323 62.6169 168.467C106.374 158.781 151.093 159.637 189.24 182.488C192.499 184.575 194.422 186.448 194.422 191.318C194.422 196.188 190.629 199.56 186.301 199.56ZM200.673 164.454C197.895 164.454 196.025 163.223 194.102 162.206C160.71 142.405 110.915 134.431 66.624 146.472C64.0595 147.168 62.6704 147.864 60.2661 147.864C54.5494 147.864 49.9012 143.208 49.9012 137.482C49.9012 131.755 52.6794 127.956 58.1825 126.404C73.0353 122.23 88.2087 119.126 110.434 119.126C145.109 119.126 178.608 127.742 205.001 143.475C209.329 146.044 211.038 149.362 211.038 154.018C210.985 159.798 206.497 164.454 200.673 164.454ZM217.236 123.675C214.458 123.675 212.748 122.979 210.344 121.587C172.303 98.8434 104.29 93.3848 60.2661 105.693C58.3427 106.229 55.9385 107.085 53.374 107.085C46.3216 107.085 40.9254 101.573 40.9254 94.4551C40.9254 87.177 45.4133 83.0563 50.2218 81.6648C69.0282 76.1527 90.0786 73.5305 112.999 73.5305C152.001 73.5305 192.873 81.6648 222.739 99.1109C226.906 101.519 229.631 104.837 229.631 111.205C229.631 118.484 223.754 123.675 217.236 123.675Z" fill="white"/>
</svg>
