<svg width="265" height="909" viewBox="0 0 265 909" fill="none" xmlns="http://www.w3.org/2000/svg">
<path d="M-90.2923 16.5762C-90.2923 -6.43755 -115.61 -2.23779 -120.014 16.5762C-124.417 35.3906 -117.812 102.537 -120.014 113.445C-122.215 124.352 -132.122 138.865 -138.727 135.461C-145.332 132.057 -149.735 125.451 -153.037 113.445C-156.339 101.434 -150.835 30.7845 -153.037 16.5762C-155.239 2.36863 -176.154 1.26758 -180.557 16.5762C-184.96 31.8857 -171.75 75.0191 -180.557 74.9178C-189.365 74.8112 -222.386 24.1798 -231.193 13.2738C-239.999 2.36875 -265.812 2.5186 -257.612 19.8785C-249.417 37.2188 -160.963 141.705 -157.453 165.096C-158.766 166.714 -260.953 292.85 -260.914 307.081C-260.874 320.183 -180.766 420.773 -162.845 454.692C-164.32 477.894 -260.989 572.773 -262.015 595.487C-262.975 616.765 -178.326 723.715 -164.76 740.711C-160.588 762.925 -256.467 867.695 -262.015 884.993C-267.653 902.573 -262.015 916.949 -235.596 891.598C-209.179 866.249 -191.432 826.691 -184.96 829.954C-178.489 833.223 -182.628 871.817 -184.96 888.295C-187.291 904.776 -164.175 928.994 -157.44 888.295C-150.706 847.599 -158.426 795.858 -157.44 791.426C-156.454 786.995 -148.519 771.643 -143.13 769.411C-137.741 767.183 -126.733 784.793 -124.417 791.426C-122.101 798.06 -132.008 851.998 -124.417 888.295C-116.826 924.595 -94.8188 910.28 -94.6955 888.295C-94.5722 866.313 -100.059 827.792 -92.4939 833.256C-84.9271 838.727 -74.7427 859.71 -52.8657 888.295C-30.9887 916.883 -7.87222 893.766 -24.2453 875.086C-39.7267 857.425 -113.49 770.837 -117.689 742.855C-113.677 738.41 -13.3167 626.897 -19.8422 600.991C-25.8238 577.249 -100.983 477.161 -116.227 457.026C-109.538 436.608 -18.6951 333.793 -18.7414 312.585C-18.7854 293.509 -97.1458 196.027 -115.285 164.528C-109.673 154.769 -32.5694 42.4167 -19.8422 29.7856C-6.63275 16.6776 -26.4469 -5.33782 -48.4626 16.5762C-70.4782 38.4904 -79.2845 79.4222 -88.0908 71.6154C-96.8948 63.8074 -90.2923 39.5901 -90.2923 16.5762ZM120.318 15.7248C115.915 -3.08914 90.598 -7.28914 90.5973 15.7248C90.5973 38.7394 97.2014 62.9567 88.3957 70.7641C79.5895 78.5704 70.7832 37.6389 48.7675 15.7248C26.7518 -6.18857 6.93771 15.8263 20.1471 28.9343C32.8744 41.5636 109.976 153.916 115.589 163.677C97.4497 195.175 19.0882 292.657 19.0463 311.735C19.0001 332.943 109.844 435.756 116.532 456.174C101.289 476.309 26.1266 576.399 20.1471 600.141C13.6239 626.045 113.979 737.556 117.995 742.003C113.795 769.988 40.0295 856.575 24.5503 874.236C8.17719 892.914 31.2937 916.031 53.1706 887.446C75.0474 858.86 85.2321 837.875 92.7989 832.406C100.365 826.938 94.8765 865.461 95.0004 887.446C95.1246 909.43 117.13 923.743 124.722 887.446C132.313 851.148 122.406 797.208 124.722 790.577C127.037 783.943 138.045 766.331 143.435 768.561C148.825 770.791 156.758 786.145 157.745 790.577C158.732 795.006 151.011 846.747 157.745 887.446C164.48 928.142 187.596 903.924 185.265 887.446C182.933 870.965 178.794 832.373 185.265 829.104C191.736 825.837 209.483 865.397 235.901 890.748C262.32 916.099 267.958 901.721 262.32 884.143C256.77 866.843 160.893 762.073 165.066 739.861C178.629 722.867 263.28 615.915 262.32 594.637C261.294 571.923 164.626 477.045 163.15 453.842C181.069 419.923 261.18 319.331 261.219 306.232C261.259 291.998 159.059 165.85 157.758 164.245C161.268 140.854 249.723 36.3675 257.917 19.0271C266.119 1.66613 240.304 1.51649 231.498 12.4224C222.691 23.3291 189.669 73.9636 180.862 74.0665C172.056 74.1664 185.265 31.0342 180.862 15.7248C176.458 0.416221 155.544 1.51691 153.342 15.7248C151.141 29.9334 156.644 100.585 153.342 112.594C150.04 124.601 145.636 131.206 139.032 134.61C132.427 138.013 122.52 123.5 120.318 112.594C118.117 101.685 124.722 34.5391 120.318 15.7248ZM-3.18509 675.881C-9.78979 670.378 -56.0205 734.223 -57.1235 746.332C-58.2243 758.44 -11.9914 824.487 -3.18509 821.185C5.62338 817.878 50.7542 757.34 49.6534 746.332C48.5515 735.324 3.42181 681.388 -3.18509 675.881ZM-22.9992 746.332C-22.997 738.626 -6.48746 715.51 -3.18509 718.812C0.119446 722.114 14.4274 741.929 15.5282 746.332C16.629 750.735 2.32101 773.849 -3.18509 774.952C-8.68903 776.053 -22.9992 754.037 -22.9992 746.332ZM-154.087 500.833C-144.233 485.411 -144.178 476.617 -139.828 478.804C-135.477 480.992 -128.767 504.122 -122.164 511.84C-115.56 519.559 -121.167 683.536 -125.517 698.961C-129.868 714.385 -133.276 714.358 -139.828 720.976C-146.379 727.594 -157.387 716.586 -158.541 698.961C-159.695 681.333 -163.941 516.259 -154.087 500.833ZM140.133 477.954C144.483 475.766 144.537 484.559 154.391 499.983C164.246 515.407 159.999 680.483 158.846 698.111C157.693 715.736 146.685 726.742 140.133 720.126C133.58 713.508 130.173 713.533 125.822 698.111C121.472 682.684 115.864 518.709 122.469 510.991C129.073 503.27 135.782 480.142 140.133 477.954ZM-92.4939 548.153C-89.1916 529.429 -54.0215 591.068 -51.7649 600.991C-49.5105 610.911 -94.6426 672.555 -95.7963 653.828C-96.9499 635.102 -95.7963 566.88 -92.4939 548.153ZM52.0699 600.141C54.3245 590.218 89.4963 528.577 92.7989 547.303C96.1012 566.03 97.2546 634.252 96.1012 652.979C94.9478 671.705 49.8157 610.061 52.0699 600.141ZM-232.293 595.487C-233.445 584.466 -192.617 536.064 -186.061 538.246C-179.509 540.434 -179.509 648.311 -186.061 653.828C-192.615 659.343 -231.14 606.508 -232.293 595.487ZM186.366 537.396C192.919 535.208 233.752 583.616 232.598 594.637C231.445 605.658 192.918 658.493 186.366 652.979C179.814 647.457 179.814 539.587 186.366 537.396ZM-3.18509 387.476C-14.1907 384.174 -52.7182 449.118 -57.1235 457.926C-61.5267 466.732 -13.0922 532.78 -3.18509 532.78C6.72415 532.777 46.3511 474.438 49.6534 457.926C52.9545 441.414 7.82495 390.781 -3.18509 387.476ZM-3.18509 430.407C1.22025 430.409 15.5282 451.321 15.5282 457.926C15.5282 464.531 1.22025 486.544 -3.18509 486.547C-7.58823 486.547 -24.1 463.43 -22.9992 457.926C-21.8962 452.422 -7.58823 430.407 -3.18509 430.407ZM-157.44 206.911C-155.28 199.195 -144.189 189.311 -138.727 190.399C-133.265 191.489 -125.561 200.296 -124.417 206.911C-123.274 213.526 -121.156 402.839 -124.417 410.555C-127.677 418.272 -132.164 431.461 -138.727 432.571C-145.29 433.68 -155.197 420.473 -157.44 410.555C-159.684 400.628 -159.6 214.627 -157.44 206.911ZM139.032 189.548C144.493 188.458 155.586 198.344 157.745 206.06C159.904 213.775 159.989 399.783 157.745 409.705C155.501 419.621 145.594 432.831 139.032 431.721C132.47 430.609 127.981 417.42 124.722 409.705C121.462 401.984 123.579 212.675 124.722 206.06C125.865 199.444 133.571 190.638 139.032 189.548ZM-231.193 307.081C-230.134 294.964 -193.726 246.556 -184.96 249.841C-176.195 253.134 -177.296 374.22 -184.96 365.423C-192.626 356.625 -232.252 319.201 -231.193 307.081ZM-91.3931 259.748C-84.8303 258.638 -46.3028 303.77 -50.6641 312.585C-55.0254 321.403 -89.2334 370.918 -94.6955 365.423C-100.155 359.921 -97.9538 260.873 -91.3931 259.748ZM185.265 248.991C194.029 245.699 230.439 294.112 231.498 306.232C232.556 318.349 192.928 355.776 185.265 364.573C177.602 373.366 176.501 252.284 185.265 248.991ZM50.9691 311.735C46.6095 302.918 85.1348 257.788 91.6981 258.898C98.2601 260.012 100.462 359.076 95.0004 364.573C89.5388 370.066 55.3297 320.551 50.9691 311.735ZM-3.18509 94.6674C-15.2937 93.5666 -58.2221 156.31 -57.1235 165.118C-56.0227 173.924 -8.68903 239.971 -3.18509 239.971C2.32321 239.964 49.6534 172.822 49.6534 165.118C49.6517 157.411 8.92574 95.771 -3.18509 94.6674ZM-22.9992 165.118C-22.997 161.813 -7.58823 133.195 -3.18509 137.598C1.21805 142.002 17.7298 159.613 15.5282 165.118C13.3267 170.621 1.22025 193.735 -3.18509 193.738C-7.58823 193.738 -22.9992 168.42 -22.9992 165.118Z" fill="#04642E" fill-opacity="0.3"/>
</svg>
