<svg width="256" height="180" viewBox="0 0 256 180" fill="none" xmlns="http://www.w3.org/2000/svg">
<path d="M244.291 29.668C241.5 19.2086 233.275 10.971 222.832 8.17551C203.903 3.0957 128 3.0957 128 3.0957C128 3.0957 52.0979 3.0957 33.1685 8.17551C22.7254 10.9715 14.5005 19.2086 11.709 29.668C6.63696 48.6264 6.63696 88.1813 6.63696 88.1813C6.63696 88.1813 6.63696 127.736 11.709 146.695C14.5005 157.154 22.7254 165.048 33.1685 167.844C52.0979 172.924 128 172.924 128 172.924C128 172.924 203.902 172.924 222.832 167.844C233.275 165.048 241.5 157.154 244.291 146.695C249.363 127.736 249.363 88.1813 249.363 88.1813C249.363 88.1813 249.363 48.6264 244.291 29.668ZM103.176 124.094V52.2684L166.615 88.1822L103.176 124.094Z" fill="white"/>
</svg>
